%TF.GenerationSoftware,KiCad,Pcbnew,9.0.4*%
%TF.CreationDate,2025-09-10T12:51:38+03:00*%
%TF.ProjectId,leakage_tester,6c65616b-6167-4655-9f74-65737465722e,rev?*%
%TF.SameCoordinates,Original*%
%TF.FileFunction,Legend,Top*%
%TF.FilePolarity,Positive*%
%FSLAX46Y46*%
G04 Gerber Fmt 4.6, Leading zero omitted, Abs format (unit mm)*
G04 Created by KiCad (PCBNEW 9.0.4) date 2025-09-10 12:51:38*
%MOMM*%
%LPD*%
G01*
G04 APERTURE LIST*
%ADD10C,0.160000*%
G04 APERTURE END LIST*
D10*
X75224310Y-96056441D02*
X75129072Y-96151680D01*
X75129072Y-96151680D02*
X74843358Y-96246918D01*
X74843358Y-96246918D02*
X74652882Y-96246918D01*
X74652882Y-96246918D02*
X74367167Y-96151680D01*
X74367167Y-96151680D02*
X74176691Y-95961203D01*
X74176691Y-95961203D02*
X74081453Y-95770727D01*
X74081453Y-95770727D02*
X73986215Y-95389775D01*
X73986215Y-95389775D02*
X73986215Y-95104060D01*
X73986215Y-95104060D02*
X74081453Y-94723108D01*
X74081453Y-94723108D02*
X74176691Y-94532632D01*
X74176691Y-94532632D02*
X74367167Y-94342156D01*
X74367167Y-94342156D02*
X74652882Y-94246918D01*
X74652882Y-94246918D02*
X74843358Y-94246918D01*
X74843358Y-94246918D02*
X75129072Y-94342156D01*
X75129072Y-94342156D02*
X75224310Y-94437394D01*
X76938596Y-96246918D02*
X76938596Y-95199299D01*
X76938596Y-95199299D02*
X76843358Y-95008822D01*
X76843358Y-95008822D02*
X76652882Y-94913584D01*
X76652882Y-94913584D02*
X76271929Y-94913584D01*
X76271929Y-94913584D02*
X76081453Y-95008822D01*
X76938596Y-96151680D02*
X76748120Y-96246918D01*
X76748120Y-96246918D02*
X76271929Y-96246918D01*
X76271929Y-96246918D02*
X76081453Y-96151680D01*
X76081453Y-96151680D02*
X75986215Y-95961203D01*
X75986215Y-95961203D02*
X75986215Y-95770727D01*
X75986215Y-95770727D02*
X76081453Y-95580251D01*
X76081453Y-95580251D02*
X76271929Y-95485013D01*
X76271929Y-95485013D02*
X76748120Y-95485013D01*
X76748120Y-95485013D02*
X76938596Y-95389775D01*
X77890977Y-94913584D02*
X77890977Y-96913584D01*
X77890977Y-95008822D02*
X78081453Y-94913584D01*
X78081453Y-94913584D02*
X78462406Y-94913584D01*
X78462406Y-94913584D02*
X78652882Y-95008822D01*
X78652882Y-95008822D02*
X78748120Y-95104060D01*
X78748120Y-95104060D02*
X78843358Y-95294537D01*
X78843358Y-95294537D02*
X78843358Y-95865965D01*
X78843358Y-95865965D02*
X78748120Y-96056441D01*
X78748120Y-96056441D02*
X78652882Y-96151680D01*
X78652882Y-96151680D02*
X78462406Y-96246918D01*
X78462406Y-96246918D02*
X78081453Y-96246918D01*
X78081453Y-96246918D02*
X77890977Y-96151680D01*
X80557644Y-96246918D02*
X80557644Y-95199299D01*
X80557644Y-95199299D02*
X80462406Y-95008822D01*
X80462406Y-95008822D02*
X80271930Y-94913584D01*
X80271930Y-94913584D02*
X79890977Y-94913584D01*
X79890977Y-94913584D02*
X79700501Y-95008822D01*
X80557644Y-96151680D02*
X80367168Y-96246918D01*
X80367168Y-96246918D02*
X79890977Y-96246918D01*
X79890977Y-96246918D02*
X79700501Y-96151680D01*
X79700501Y-96151680D02*
X79605263Y-95961203D01*
X79605263Y-95961203D02*
X79605263Y-95770727D01*
X79605263Y-95770727D02*
X79700501Y-95580251D01*
X79700501Y-95580251D02*
X79890977Y-95485013D01*
X79890977Y-95485013D02*
X80367168Y-95485013D01*
X80367168Y-95485013D02*
X80557644Y-95389775D01*
X82367168Y-96151680D02*
X82176692Y-96246918D01*
X82176692Y-96246918D02*
X81795739Y-96246918D01*
X81795739Y-96246918D02*
X81605263Y-96151680D01*
X81605263Y-96151680D02*
X81510025Y-96056441D01*
X81510025Y-96056441D02*
X81414787Y-95865965D01*
X81414787Y-95865965D02*
X81414787Y-95294537D01*
X81414787Y-95294537D02*
X81510025Y-95104060D01*
X81510025Y-95104060D02*
X81605263Y-95008822D01*
X81605263Y-95008822D02*
X81795739Y-94913584D01*
X81795739Y-94913584D02*
X82176692Y-94913584D01*
X82176692Y-94913584D02*
X82367168Y-95008822D01*
X83224311Y-96246918D02*
X83224311Y-94913584D01*
X83224311Y-94246918D02*
X83129073Y-94342156D01*
X83129073Y-94342156D02*
X83224311Y-94437394D01*
X83224311Y-94437394D02*
X83319549Y-94342156D01*
X83319549Y-94342156D02*
X83224311Y-94246918D01*
X83224311Y-94246918D02*
X83224311Y-94437394D01*
X83890978Y-94913584D02*
X84652882Y-94913584D01*
X84176692Y-94246918D02*
X84176692Y-95961203D01*
X84176692Y-95961203D02*
X84271930Y-96151680D01*
X84271930Y-96151680D02*
X84462406Y-96246918D01*
X84462406Y-96246918D02*
X84652882Y-96246918D01*
X85605263Y-96246918D02*
X85414787Y-96151680D01*
X85414787Y-96151680D02*
X85319549Y-96056441D01*
X85319549Y-96056441D02*
X85224311Y-95865965D01*
X85224311Y-95865965D02*
X85224311Y-95294537D01*
X85224311Y-95294537D02*
X85319549Y-95104060D01*
X85319549Y-95104060D02*
X85414787Y-95008822D01*
X85414787Y-95008822D02*
X85605263Y-94913584D01*
X85605263Y-94913584D02*
X85890978Y-94913584D01*
X85890978Y-94913584D02*
X86081454Y-95008822D01*
X86081454Y-95008822D02*
X86176692Y-95104060D01*
X86176692Y-95104060D02*
X86271930Y-95294537D01*
X86271930Y-95294537D02*
X86271930Y-95865965D01*
X86271930Y-95865965D02*
X86176692Y-96056441D01*
X86176692Y-96056441D02*
X86081454Y-96151680D01*
X86081454Y-96151680D02*
X85890978Y-96246918D01*
X85890978Y-96246918D02*
X85605263Y-96246918D01*
X87129073Y-96246918D02*
X87129073Y-94913584D01*
X87129073Y-95294537D02*
X87224311Y-95104060D01*
X87224311Y-95104060D02*
X87319549Y-95008822D01*
X87319549Y-95008822D02*
X87510025Y-94913584D01*
X87510025Y-94913584D02*
X87700502Y-94913584D01*
X90176692Y-96246918D02*
X89986216Y-96151680D01*
X89986216Y-96151680D02*
X89890978Y-95961203D01*
X89890978Y-95961203D02*
X89890978Y-94246918D01*
X91700502Y-96151680D02*
X91510026Y-96246918D01*
X91510026Y-96246918D02*
X91129073Y-96246918D01*
X91129073Y-96246918D02*
X90938597Y-96151680D01*
X90938597Y-96151680D02*
X90843359Y-95961203D01*
X90843359Y-95961203D02*
X90843359Y-95199299D01*
X90843359Y-95199299D02*
X90938597Y-95008822D01*
X90938597Y-95008822D02*
X91129073Y-94913584D01*
X91129073Y-94913584D02*
X91510026Y-94913584D01*
X91510026Y-94913584D02*
X91700502Y-95008822D01*
X91700502Y-95008822D02*
X91795740Y-95199299D01*
X91795740Y-95199299D02*
X91795740Y-95389775D01*
X91795740Y-95389775D02*
X90843359Y-95580251D01*
X93510026Y-96246918D02*
X93510026Y-95199299D01*
X93510026Y-95199299D02*
X93414788Y-95008822D01*
X93414788Y-95008822D02*
X93224312Y-94913584D01*
X93224312Y-94913584D02*
X92843359Y-94913584D01*
X92843359Y-94913584D02*
X92652883Y-95008822D01*
X93510026Y-96151680D02*
X93319550Y-96246918D01*
X93319550Y-96246918D02*
X92843359Y-96246918D01*
X92843359Y-96246918D02*
X92652883Y-96151680D01*
X92652883Y-96151680D02*
X92557645Y-95961203D01*
X92557645Y-95961203D02*
X92557645Y-95770727D01*
X92557645Y-95770727D02*
X92652883Y-95580251D01*
X92652883Y-95580251D02*
X92843359Y-95485013D01*
X92843359Y-95485013D02*
X93319550Y-95485013D01*
X93319550Y-95485013D02*
X93510026Y-95389775D01*
X94462407Y-96246918D02*
X94462407Y-94246918D01*
X94652883Y-95485013D02*
X95224312Y-96246918D01*
X95224312Y-94913584D02*
X94462407Y-95675489D01*
X96938598Y-96246918D02*
X96938598Y-95199299D01*
X96938598Y-95199299D02*
X96843360Y-95008822D01*
X96843360Y-95008822D02*
X96652884Y-94913584D01*
X96652884Y-94913584D02*
X96271931Y-94913584D01*
X96271931Y-94913584D02*
X96081455Y-95008822D01*
X96938598Y-96151680D02*
X96748122Y-96246918D01*
X96748122Y-96246918D02*
X96271931Y-96246918D01*
X96271931Y-96246918D02*
X96081455Y-96151680D01*
X96081455Y-96151680D02*
X95986217Y-95961203D01*
X95986217Y-95961203D02*
X95986217Y-95770727D01*
X95986217Y-95770727D02*
X96081455Y-95580251D01*
X96081455Y-95580251D02*
X96271931Y-95485013D01*
X96271931Y-95485013D02*
X96748122Y-95485013D01*
X96748122Y-95485013D02*
X96938598Y-95389775D01*
X98748122Y-94913584D02*
X98748122Y-96532632D01*
X98748122Y-96532632D02*
X98652884Y-96723108D01*
X98652884Y-96723108D02*
X98557646Y-96818346D01*
X98557646Y-96818346D02*
X98367169Y-96913584D01*
X98367169Y-96913584D02*
X98081455Y-96913584D01*
X98081455Y-96913584D02*
X97890979Y-96818346D01*
X98748122Y-96151680D02*
X98557646Y-96246918D01*
X98557646Y-96246918D02*
X98176693Y-96246918D01*
X98176693Y-96246918D02*
X97986217Y-96151680D01*
X97986217Y-96151680D02*
X97890979Y-96056441D01*
X97890979Y-96056441D02*
X97795741Y-95865965D01*
X97795741Y-95865965D02*
X97795741Y-95294537D01*
X97795741Y-95294537D02*
X97890979Y-95104060D01*
X97890979Y-95104060D02*
X97986217Y-95008822D01*
X97986217Y-95008822D02*
X98176693Y-94913584D01*
X98176693Y-94913584D02*
X98557646Y-94913584D01*
X98557646Y-94913584D02*
X98748122Y-95008822D01*
X100462408Y-96151680D02*
X100271932Y-96246918D01*
X100271932Y-96246918D02*
X99890979Y-96246918D01*
X99890979Y-96246918D02*
X99700503Y-96151680D01*
X99700503Y-96151680D02*
X99605265Y-95961203D01*
X99605265Y-95961203D02*
X99605265Y-95199299D01*
X99605265Y-95199299D02*
X99700503Y-95008822D01*
X99700503Y-95008822D02*
X99890979Y-94913584D01*
X99890979Y-94913584D02*
X100271932Y-94913584D01*
X100271932Y-94913584D02*
X100462408Y-95008822D01*
X100462408Y-95008822D02*
X100557646Y-95199299D01*
X100557646Y-95199299D02*
X100557646Y-95389775D01*
X100557646Y-95389775D02*
X99605265Y-95580251D01*
X102652885Y-94913584D02*
X103414789Y-94913584D01*
X102938599Y-94246918D02*
X102938599Y-95961203D01*
X102938599Y-95961203D02*
X103033837Y-96151680D01*
X103033837Y-96151680D02*
X103224313Y-96246918D01*
X103224313Y-96246918D02*
X103414789Y-96246918D01*
X104843361Y-96151680D02*
X104652885Y-96246918D01*
X104652885Y-96246918D02*
X104271932Y-96246918D01*
X104271932Y-96246918D02*
X104081456Y-96151680D01*
X104081456Y-96151680D02*
X103986218Y-95961203D01*
X103986218Y-95961203D02*
X103986218Y-95199299D01*
X103986218Y-95199299D02*
X104081456Y-95008822D01*
X104081456Y-95008822D02*
X104271932Y-94913584D01*
X104271932Y-94913584D02*
X104652885Y-94913584D01*
X104652885Y-94913584D02*
X104843361Y-95008822D01*
X104843361Y-95008822D02*
X104938599Y-95199299D01*
X104938599Y-95199299D02*
X104938599Y-95389775D01*
X104938599Y-95389775D02*
X103986218Y-95580251D01*
X105700504Y-96151680D02*
X105890980Y-96246918D01*
X105890980Y-96246918D02*
X106271932Y-96246918D01*
X106271932Y-96246918D02*
X106462409Y-96151680D01*
X106462409Y-96151680D02*
X106557647Y-95961203D01*
X106557647Y-95961203D02*
X106557647Y-95865965D01*
X106557647Y-95865965D02*
X106462409Y-95675489D01*
X106462409Y-95675489D02*
X106271932Y-95580251D01*
X106271932Y-95580251D02*
X105986218Y-95580251D01*
X105986218Y-95580251D02*
X105795742Y-95485013D01*
X105795742Y-95485013D02*
X105700504Y-95294537D01*
X105700504Y-95294537D02*
X105700504Y-95199299D01*
X105700504Y-95199299D02*
X105795742Y-95008822D01*
X105795742Y-95008822D02*
X105986218Y-94913584D01*
X105986218Y-94913584D02*
X106271932Y-94913584D01*
X106271932Y-94913584D02*
X106462409Y-95008822D01*
X107129076Y-94913584D02*
X107890980Y-94913584D01*
X107414790Y-94246918D02*
X107414790Y-95961203D01*
X107414790Y-95961203D02*
X107510028Y-96151680D01*
X107510028Y-96151680D02*
X107700504Y-96246918D01*
X107700504Y-96246918D02*
X107890980Y-96246918D01*
X109319552Y-96151680D02*
X109129076Y-96246918D01*
X109129076Y-96246918D02*
X108748123Y-96246918D01*
X108748123Y-96246918D02*
X108557647Y-96151680D01*
X108557647Y-96151680D02*
X108462409Y-95961203D01*
X108462409Y-95961203D02*
X108462409Y-95199299D01*
X108462409Y-95199299D02*
X108557647Y-95008822D01*
X108557647Y-95008822D02*
X108748123Y-94913584D01*
X108748123Y-94913584D02*
X109129076Y-94913584D01*
X109129076Y-94913584D02*
X109319552Y-95008822D01*
X109319552Y-95008822D02*
X109414790Y-95199299D01*
X109414790Y-95199299D02*
X109414790Y-95389775D01*
X109414790Y-95389775D02*
X108462409Y-95580251D01*
X110271933Y-96246918D02*
X110271933Y-94913584D01*
X110271933Y-95294537D02*
X110367171Y-95104060D01*
X110367171Y-95104060D02*
X110462409Y-95008822D01*
X110462409Y-95008822D02*
X110652885Y-94913584D01*
X110652885Y-94913584D02*
X110843362Y-94913584D01*
X90045739Y-91996918D02*
X90712405Y-93996918D01*
X90712405Y-93996918D02*
X91379072Y-91996918D01*
X92426691Y-91996918D02*
X92617168Y-91996918D01*
X92617168Y-91996918D02*
X92807644Y-92092156D01*
X92807644Y-92092156D02*
X92902882Y-92187394D01*
X92902882Y-92187394D02*
X92998120Y-92377870D01*
X92998120Y-92377870D02*
X93093358Y-92758822D01*
X93093358Y-92758822D02*
X93093358Y-93235013D01*
X93093358Y-93235013D02*
X92998120Y-93615965D01*
X92998120Y-93615965D02*
X92902882Y-93806441D01*
X92902882Y-93806441D02*
X92807644Y-93901680D01*
X92807644Y-93901680D02*
X92617168Y-93996918D01*
X92617168Y-93996918D02*
X92426691Y-93996918D01*
X92426691Y-93996918D02*
X92236215Y-93901680D01*
X92236215Y-93901680D02*
X92140977Y-93806441D01*
X92140977Y-93806441D02*
X92045739Y-93615965D01*
X92045739Y-93615965D02*
X91950501Y-93235013D01*
X91950501Y-93235013D02*
X91950501Y-92758822D01*
X91950501Y-92758822D02*
X92045739Y-92377870D01*
X92045739Y-92377870D02*
X92140977Y-92187394D01*
X92140977Y-92187394D02*
X92236215Y-92092156D01*
X92236215Y-92092156D02*
X92426691Y-91996918D01*
X93950501Y-93806441D02*
X94045739Y-93901680D01*
X94045739Y-93901680D02*
X93950501Y-93996918D01*
X93950501Y-93996918D02*
X93855263Y-93901680D01*
X93855263Y-93901680D02*
X93950501Y-93806441D01*
X93950501Y-93806441D02*
X93950501Y-93996918D01*
X95950501Y-93996918D02*
X94807644Y-93996918D01*
X95379072Y-93996918D02*
X95379072Y-91996918D01*
X95379072Y-91996918D02*
X95188596Y-92282632D01*
X95188596Y-92282632D02*
X94998120Y-92473108D01*
X94998120Y-92473108D02*
X94807644Y-92568346D01*
X130867167Y-91166918D02*
X130771929Y-91119299D01*
X130771929Y-91119299D02*
X130629072Y-91119299D01*
X130629072Y-91119299D02*
X130486215Y-91166918D01*
X130486215Y-91166918D02*
X130390977Y-91262156D01*
X130390977Y-91262156D02*
X130343358Y-91357394D01*
X130343358Y-91357394D02*
X130295739Y-91547870D01*
X130295739Y-91547870D02*
X130295739Y-91690727D01*
X130295739Y-91690727D02*
X130343358Y-91881203D01*
X130343358Y-91881203D02*
X130390977Y-91976441D01*
X130390977Y-91976441D02*
X130486215Y-92071680D01*
X130486215Y-92071680D02*
X130629072Y-92119299D01*
X130629072Y-92119299D02*
X130724310Y-92119299D01*
X130724310Y-92119299D02*
X130867167Y-92071680D01*
X130867167Y-92071680D02*
X130914786Y-92024060D01*
X130914786Y-92024060D02*
X130914786Y-91690727D01*
X130914786Y-91690727D02*
X130724310Y-91690727D01*
X131343358Y-92119299D02*
X131343358Y-91119299D01*
X131343358Y-91119299D02*
X131914786Y-92119299D01*
X131914786Y-92119299D02*
X131914786Y-91119299D01*
X132390977Y-92119299D02*
X132390977Y-91119299D01*
X132390977Y-91119299D02*
X132629072Y-91119299D01*
X132629072Y-91119299D02*
X132771929Y-91166918D01*
X132771929Y-91166918D02*
X132867167Y-91262156D01*
X132867167Y-91262156D02*
X132914786Y-91357394D01*
X132914786Y-91357394D02*
X132962405Y-91547870D01*
X132962405Y-91547870D02*
X132962405Y-91690727D01*
X132962405Y-91690727D02*
X132914786Y-91881203D01*
X132914786Y-91881203D02*
X132867167Y-91976441D01*
X132867167Y-91976441D02*
X132771929Y-92071680D01*
X132771929Y-92071680D02*
X132629072Y-92119299D01*
X132629072Y-92119299D02*
X132390977Y-92119299D01*
X129843358Y-96988346D02*
X130605263Y-96988346D01*
X130224310Y-97369299D02*
X130224310Y-96607394D01*
X131557643Y-96369299D02*
X131081453Y-96369299D01*
X131081453Y-96369299D02*
X131033834Y-96845489D01*
X131033834Y-96845489D02*
X131081453Y-96797870D01*
X131081453Y-96797870D02*
X131176691Y-96750251D01*
X131176691Y-96750251D02*
X131414786Y-96750251D01*
X131414786Y-96750251D02*
X131510024Y-96797870D01*
X131510024Y-96797870D02*
X131557643Y-96845489D01*
X131557643Y-96845489D02*
X131605262Y-96940727D01*
X131605262Y-96940727D02*
X131605262Y-97178822D01*
X131605262Y-97178822D02*
X131557643Y-97274060D01*
X131557643Y-97274060D02*
X131510024Y-97321680D01*
X131510024Y-97321680D02*
X131414786Y-97369299D01*
X131414786Y-97369299D02*
X131176691Y-97369299D01*
X131176691Y-97369299D02*
X131081453Y-97321680D01*
X131081453Y-97321680D02*
X131033834Y-97274060D01*
X131890977Y-96369299D02*
X132224310Y-97369299D01*
X132224310Y-97369299D02*
X132557643Y-96369299D01*
X130045739Y-98821680D02*
X130188596Y-98869299D01*
X130188596Y-98869299D02*
X130426691Y-98869299D01*
X130426691Y-98869299D02*
X130521929Y-98821680D01*
X130521929Y-98821680D02*
X130569548Y-98774060D01*
X130569548Y-98774060D02*
X130617167Y-98678822D01*
X130617167Y-98678822D02*
X130617167Y-98583584D01*
X130617167Y-98583584D02*
X130569548Y-98488346D01*
X130569548Y-98488346D02*
X130521929Y-98440727D01*
X130521929Y-98440727D02*
X130426691Y-98393108D01*
X130426691Y-98393108D02*
X130236215Y-98345489D01*
X130236215Y-98345489D02*
X130140977Y-98297870D01*
X130140977Y-98297870D02*
X130093358Y-98250251D01*
X130093358Y-98250251D02*
X130045739Y-98155013D01*
X130045739Y-98155013D02*
X130045739Y-98059775D01*
X130045739Y-98059775D02*
X130093358Y-97964537D01*
X130093358Y-97964537D02*
X130140977Y-97916918D01*
X130140977Y-97916918D02*
X130236215Y-97869299D01*
X130236215Y-97869299D02*
X130474310Y-97869299D01*
X130474310Y-97869299D02*
X130617167Y-97916918D01*
X131045739Y-98869299D02*
X131045739Y-97869299D01*
X131045739Y-97869299D02*
X131283834Y-97869299D01*
X131283834Y-97869299D02*
X131426691Y-97916918D01*
X131426691Y-97916918D02*
X131521929Y-98012156D01*
X131521929Y-98012156D02*
X131569548Y-98107394D01*
X131569548Y-98107394D02*
X131617167Y-98297870D01*
X131617167Y-98297870D02*
X131617167Y-98440727D01*
X131617167Y-98440727D02*
X131569548Y-98631203D01*
X131569548Y-98631203D02*
X131521929Y-98726441D01*
X131521929Y-98726441D02*
X131426691Y-98821680D01*
X131426691Y-98821680D02*
X131283834Y-98869299D01*
X131283834Y-98869299D02*
X131045739Y-98869299D01*
X131998120Y-98583584D02*
X132474310Y-98583584D01*
X131902882Y-98869299D02*
X132236215Y-97869299D01*
X132236215Y-97869299D02*
X132569548Y-98869299D01*
X130295739Y-101821680D02*
X130438596Y-101869299D01*
X130438596Y-101869299D02*
X130676691Y-101869299D01*
X130676691Y-101869299D02*
X130771929Y-101821680D01*
X130771929Y-101821680D02*
X130819548Y-101774060D01*
X130819548Y-101774060D02*
X130867167Y-101678822D01*
X130867167Y-101678822D02*
X130867167Y-101583584D01*
X130867167Y-101583584D02*
X130819548Y-101488346D01*
X130819548Y-101488346D02*
X130771929Y-101440727D01*
X130771929Y-101440727D02*
X130676691Y-101393108D01*
X130676691Y-101393108D02*
X130486215Y-101345489D01*
X130486215Y-101345489D02*
X130390977Y-101297870D01*
X130390977Y-101297870D02*
X130343358Y-101250251D01*
X130343358Y-101250251D02*
X130295739Y-101155013D01*
X130295739Y-101155013D02*
X130295739Y-101059775D01*
X130295739Y-101059775D02*
X130343358Y-100964537D01*
X130343358Y-100964537D02*
X130390977Y-100916918D01*
X130390977Y-100916918D02*
X130486215Y-100869299D01*
X130486215Y-100869299D02*
X130724310Y-100869299D01*
X130724310Y-100869299D02*
X130867167Y-100916918D01*
X131867167Y-101774060D02*
X131819548Y-101821680D01*
X131819548Y-101821680D02*
X131676691Y-101869299D01*
X131676691Y-101869299D02*
X131581453Y-101869299D01*
X131581453Y-101869299D02*
X131438596Y-101821680D01*
X131438596Y-101821680D02*
X131343358Y-101726441D01*
X131343358Y-101726441D02*
X131295739Y-101631203D01*
X131295739Y-101631203D02*
X131248120Y-101440727D01*
X131248120Y-101440727D02*
X131248120Y-101297870D01*
X131248120Y-101297870D02*
X131295739Y-101107394D01*
X131295739Y-101107394D02*
X131343358Y-101012156D01*
X131343358Y-101012156D02*
X131438596Y-100916918D01*
X131438596Y-100916918D02*
X131581453Y-100869299D01*
X131581453Y-100869299D02*
X131676691Y-100869299D01*
X131676691Y-100869299D02*
X131819548Y-100916918D01*
X131819548Y-100916918D02*
X131867167Y-100964537D01*
X132771929Y-101869299D02*
X132295739Y-101869299D01*
X132295739Y-101869299D02*
X132295739Y-100869299D01*
X122045739Y-110071680D02*
X122188596Y-110119299D01*
X122188596Y-110119299D02*
X122426691Y-110119299D01*
X122426691Y-110119299D02*
X122521929Y-110071680D01*
X122521929Y-110071680D02*
X122569548Y-110024060D01*
X122569548Y-110024060D02*
X122617167Y-109928822D01*
X122617167Y-109928822D02*
X122617167Y-109833584D01*
X122617167Y-109833584D02*
X122569548Y-109738346D01*
X122569548Y-109738346D02*
X122521929Y-109690727D01*
X122521929Y-109690727D02*
X122426691Y-109643108D01*
X122426691Y-109643108D02*
X122236215Y-109595489D01*
X122236215Y-109595489D02*
X122140977Y-109547870D01*
X122140977Y-109547870D02*
X122093358Y-109500251D01*
X122093358Y-109500251D02*
X122045739Y-109405013D01*
X122045739Y-109405013D02*
X122045739Y-109309775D01*
X122045739Y-109309775D02*
X122093358Y-109214537D01*
X122093358Y-109214537D02*
X122140977Y-109166918D01*
X122140977Y-109166918D02*
X122236215Y-109119299D01*
X122236215Y-109119299D02*
X122474310Y-109119299D01*
X122474310Y-109119299D02*
X122617167Y-109166918D01*
X123045739Y-110119299D02*
X123045739Y-109119299D01*
X123045739Y-109119299D02*
X123283834Y-109119299D01*
X123283834Y-109119299D02*
X123426691Y-109166918D01*
X123426691Y-109166918D02*
X123521929Y-109262156D01*
X123521929Y-109262156D02*
X123569548Y-109357394D01*
X123569548Y-109357394D02*
X123617167Y-109547870D01*
X123617167Y-109547870D02*
X123617167Y-109690727D01*
X123617167Y-109690727D02*
X123569548Y-109881203D01*
X123569548Y-109881203D02*
X123521929Y-109976441D01*
X123521929Y-109976441D02*
X123426691Y-110071680D01*
X123426691Y-110071680D02*
X123283834Y-110119299D01*
X123283834Y-110119299D02*
X123045739Y-110119299D01*
X123998120Y-109833584D02*
X124474310Y-109833584D01*
X123902882Y-110119299D02*
X124236215Y-109119299D01*
X124236215Y-109119299D02*
X124569548Y-110119299D01*
X122045739Y-112821680D02*
X122188596Y-112869299D01*
X122188596Y-112869299D02*
X122426691Y-112869299D01*
X122426691Y-112869299D02*
X122521929Y-112821680D01*
X122521929Y-112821680D02*
X122569548Y-112774060D01*
X122569548Y-112774060D02*
X122617167Y-112678822D01*
X122617167Y-112678822D02*
X122617167Y-112583584D01*
X122617167Y-112583584D02*
X122569548Y-112488346D01*
X122569548Y-112488346D02*
X122521929Y-112440727D01*
X122521929Y-112440727D02*
X122426691Y-112393108D01*
X122426691Y-112393108D02*
X122236215Y-112345489D01*
X122236215Y-112345489D02*
X122140977Y-112297870D01*
X122140977Y-112297870D02*
X122093358Y-112250251D01*
X122093358Y-112250251D02*
X122045739Y-112155013D01*
X122045739Y-112155013D02*
X122045739Y-112059775D01*
X122045739Y-112059775D02*
X122093358Y-111964537D01*
X122093358Y-111964537D02*
X122140977Y-111916918D01*
X122140977Y-111916918D02*
X122236215Y-111869299D01*
X122236215Y-111869299D02*
X122474310Y-111869299D01*
X122474310Y-111869299D02*
X122617167Y-111916918D01*
X123617167Y-112774060D02*
X123569548Y-112821680D01*
X123569548Y-112821680D02*
X123426691Y-112869299D01*
X123426691Y-112869299D02*
X123331453Y-112869299D01*
X123331453Y-112869299D02*
X123188596Y-112821680D01*
X123188596Y-112821680D02*
X123093358Y-112726441D01*
X123093358Y-112726441D02*
X123045739Y-112631203D01*
X123045739Y-112631203D02*
X122998120Y-112440727D01*
X122998120Y-112440727D02*
X122998120Y-112297870D01*
X122998120Y-112297870D02*
X123045739Y-112107394D01*
X123045739Y-112107394D02*
X123093358Y-112012156D01*
X123093358Y-112012156D02*
X123188596Y-111916918D01*
X123188596Y-111916918D02*
X123331453Y-111869299D01*
X123331453Y-111869299D02*
X123426691Y-111869299D01*
X123426691Y-111869299D02*
X123569548Y-111916918D01*
X123569548Y-111916918D02*
X123617167Y-111964537D01*
X124521929Y-112869299D02*
X124045739Y-112869299D01*
X124045739Y-112869299D02*
X124045739Y-111869299D01*
X122367167Y-114666918D02*
X122271929Y-114619299D01*
X122271929Y-114619299D02*
X122129072Y-114619299D01*
X122129072Y-114619299D02*
X121986215Y-114666918D01*
X121986215Y-114666918D02*
X121890977Y-114762156D01*
X121890977Y-114762156D02*
X121843358Y-114857394D01*
X121843358Y-114857394D02*
X121795739Y-115047870D01*
X121795739Y-115047870D02*
X121795739Y-115190727D01*
X121795739Y-115190727D02*
X121843358Y-115381203D01*
X121843358Y-115381203D02*
X121890977Y-115476441D01*
X121890977Y-115476441D02*
X121986215Y-115571680D01*
X121986215Y-115571680D02*
X122129072Y-115619299D01*
X122129072Y-115619299D02*
X122224310Y-115619299D01*
X122224310Y-115619299D02*
X122367167Y-115571680D01*
X122367167Y-115571680D02*
X122414786Y-115524060D01*
X122414786Y-115524060D02*
X122414786Y-115190727D01*
X122414786Y-115190727D02*
X122224310Y-115190727D01*
X122843358Y-115619299D02*
X122843358Y-114619299D01*
X122843358Y-114619299D02*
X123414786Y-115619299D01*
X123414786Y-115619299D02*
X123414786Y-114619299D01*
X123890977Y-115619299D02*
X123890977Y-114619299D01*
X123890977Y-114619299D02*
X124129072Y-114619299D01*
X124129072Y-114619299D02*
X124271929Y-114666918D01*
X124271929Y-114666918D02*
X124367167Y-114762156D01*
X124367167Y-114762156D02*
X124414786Y-114857394D01*
X124414786Y-114857394D02*
X124462405Y-115047870D01*
X124462405Y-115047870D02*
X124462405Y-115190727D01*
X124462405Y-115190727D02*
X124414786Y-115381203D01*
X124414786Y-115381203D02*
X124367167Y-115476441D01*
X124367167Y-115476441D02*
X124271929Y-115571680D01*
X124271929Y-115571680D02*
X124129072Y-115619299D01*
X124129072Y-115619299D02*
X123890977Y-115619299D01*
X121843358Y-118238346D02*
X122605263Y-118238346D01*
X122224310Y-118619299D02*
X122224310Y-117857394D01*
X123557643Y-117619299D02*
X123081453Y-117619299D01*
X123081453Y-117619299D02*
X123033834Y-118095489D01*
X123033834Y-118095489D02*
X123081453Y-118047870D01*
X123081453Y-118047870D02*
X123176691Y-118000251D01*
X123176691Y-118000251D02*
X123414786Y-118000251D01*
X123414786Y-118000251D02*
X123510024Y-118047870D01*
X123510024Y-118047870D02*
X123557643Y-118095489D01*
X123557643Y-118095489D02*
X123605262Y-118190727D01*
X123605262Y-118190727D02*
X123605262Y-118428822D01*
X123605262Y-118428822D02*
X123557643Y-118524060D01*
X123557643Y-118524060D02*
X123510024Y-118571680D01*
X123510024Y-118571680D02*
X123414786Y-118619299D01*
X123414786Y-118619299D02*
X123176691Y-118619299D01*
X123176691Y-118619299D02*
X123081453Y-118571680D01*
X123081453Y-118571680D02*
X123033834Y-118524060D01*
X123890977Y-117619299D02*
X124224310Y-118619299D01*
X124224310Y-118619299D02*
X124557643Y-117619299D01*
X111500000Y-92000000D02*
X128500000Y-92000000D01*
X128500000Y-120000000D01*
X111500000Y-120000000D01*
X111500000Y-92000000D01*
X79233333Y-64359060D02*
X79185714Y-64406680D01*
X79185714Y-64406680D02*
X79042857Y-64454299D01*
X79042857Y-64454299D02*
X78947619Y-64454299D01*
X78947619Y-64454299D02*
X78804762Y-64406680D01*
X78804762Y-64406680D02*
X78709524Y-64311441D01*
X78709524Y-64311441D02*
X78661905Y-64216203D01*
X78661905Y-64216203D02*
X78614286Y-64025727D01*
X78614286Y-64025727D02*
X78614286Y-63882870D01*
X78614286Y-63882870D02*
X78661905Y-63692394D01*
X78661905Y-63692394D02*
X78709524Y-63597156D01*
X78709524Y-63597156D02*
X78804762Y-63501918D01*
X78804762Y-63501918D02*
X78947619Y-63454299D01*
X78947619Y-63454299D02*
X79042857Y-63454299D01*
X79042857Y-63454299D02*
X79185714Y-63501918D01*
X79185714Y-63501918D02*
X79233333Y-63549537D01*
X79709524Y-64454299D02*
X79900000Y-64454299D01*
X79900000Y-64454299D02*
X79995238Y-64406680D01*
X79995238Y-64406680D02*
X80042857Y-64359060D01*
X80042857Y-64359060D02*
X80138095Y-64216203D01*
X80138095Y-64216203D02*
X80185714Y-64025727D01*
X80185714Y-64025727D02*
X80185714Y-63644775D01*
X80185714Y-63644775D02*
X80138095Y-63549537D01*
X80138095Y-63549537D02*
X80090476Y-63501918D01*
X80090476Y-63501918D02*
X79995238Y-63454299D01*
X79995238Y-63454299D02*
X79804762Y-63454299D01*
X79804762Y-63454299D02*
X79709524Y-63501918D01*
X79709524Y-63501918D02*
X79661905Y-63549537D01*
X79661905Y-63549537D02*
X79614286Y-63644775D01*
X79614286Y-63644775D02*
X79614286Y-63882870D01*
X79614286Y-63882870D02*
X79661905Y-63978108D01*
X79661905Y-63978108D02*
X79709524Y-64025727D01*
X79709524Y-64025727D02*
X79804762Y-64073346D01*
X79804762Y-64073346D02*
X79995238Y-64073346D01*
X79995238Y-64073346D02*
X80090476Y-64025727D01*
X80090476Y-64025727D02*
X80138095Y-63978108D01*
X80138095Y-63978108D02*
X80185714Y-63882870D01*
X82454299Y-74761904D02*
X82454299Y-74190476D01*
X83454299Y-74476190D02*
X82454299Y-74476190D01*
X83454299Y-73857142D02*
X82454299Y-73857142D01*
X82454299Y-73857142D02*
X82454299Y-73476190D01*
X82454299Y-73476190D02*
X82501918Y-73380952D01*
X82501918Y-73380952D02*
X82549537Y-73333333D01*
X82549537Y-73333333D02*
X82644775Y-73285714D01*
X82644775Y-73285714D02*
X82787632Y-73285714D01*
X82787632Y-73285714D02*
X82882870Y-73333333D01*
X82882870Y-73333333D02*
X82930489Y-73380952D01*
X82930489Y-73380952D02*
X82978108Y-73476190D01*
X82978108Y-73476190D02*
X82978108Y-73857142D01*
X83454299Y-72333333D02*
X83454299Y-72904761D01*
X83454299Y-72619047D02*
X82454299Y-72619047D01*
X82454299Y-72619047D02*
X82597156Y-72714285D01*
X82597156Y-72714285D02*
X82692394Y-72809523D01*
X82692394Y-72809523D02*
X82740013Y-72904761D01*
X125857142Y-91104299D02*
X125523809Y-90628108D01*
X125285714Y-91104299D02*
X125285714Y-90104299D01*
X125285714Y-90104299D02*
X125666666Y-90104299D01*
X125666666Y-90104299D02*
X125761904Y-90151918D01*
X125761904Y-90151918D02*
X125809523Y-90199537D01*
X125809523Y-90199537D02*
X125857142Y-90294775D01*
X125857142Y-90294775D02*
X125857142Y-90437632D01*
X125857142Y-90437632D02*
X125809523Y-90532870D01*
X125809523Y-90532870D02*
X125761904Y-90580489D01*
X125761904Y-90580489D02*
X125666666Y-90628108D01*
X125666666Y-90628108D02*
X125285714Y-90628108D01*
X126238095Y-90199537D02*
X126285714Y-90151918D01*
X126285714Y-90151918D02*
X126380952Y-90104299D01*
X126380952Y-90104299D02*
X126619047Y-90104299D01*
X126619047Y-90104299D02*
X126714285Y-90151918D01*
X126714285Y-90151918D02*
X126761904Y-90199537D01*
X126761904Y-90199537D02*
X126809523Y-90294775D01*
X126809523Y-90294775D02*
X126809523Y-90390013D01*
X126809523Y-90390013D02*
X126761904Y-90532870D01*
X126761904Y-90532870D02*
X126190476Y-91104299D01*
X126190476Y-91104299D02*
X126809523Y-91104299D01*
X127142857Y-90104299D02*
X127761904Y-90104299D01*
X127761904Y-90104299D02*
X127428571Y-90485251D01*
X127428571Y-90485251D02*
X127571428Y-90485251D01*
X127571428Y-90485251D02*
X127666666Y-90532870D01*
X127666666Y-90532870D02*
X127714285Y-90580489D01*
X127714285Y-90580489D02*
X127761904Y-90675727D01*
X127761904Y-90675727D02*
X127761904Y-90913822D01*
X127761904Y-90913822D02*
X127714285Y-91009060D01*
X127714285Y-91009060D02*
X127666666Y-91056680D01*
X127666666Y-91056680D02*
X127571428Y-91104299D01*
X127571428Y-91104299D02*
X127285714Y-91104299D01*
X127285714Y-91104299D02*
X127190476Y-91056680D01*
X127190476Y-91056680D02*
X127142857Y-91009060D01*
X97861905Y-60174299D02*
X97861905Y-59174299D01*
X98433333Y-60174299D02*
X98004762Y-59602870D01*
X98433333Y-59174299D02*
X97861905Y-59745727D01*
X99385714Y-60174299D02*
X98814286Y-60174299D01*
X99100000Y-60174299D02*
X99100000Y-59174299D01*
X99100000Y-59174299D02*
X99004762Y-59317156D01*
X99004762Y-59317156D02*
X98909524Y-59412394D01*
X98909524Y-59412394D02*
X98814286Y-59460013D01*
X101761905Y-77414299D02*
X101761905Y-76414299D01*
X101761905Y-76414299D02*
X102000000Y-76414299D01*
X102000000Y-76414299D02*
X102142857Y-76461918D01*
X102142857Y-76461918D02*
X102238095Y-76557156D01*
X102238095Y-76557156D02*
X102285714Y-76652394D01*
X102285714Y-76652394D02*
X102333333Y-76842870D01*
X102333333Y-76842870D02*
X102333333Y-76985727D01*
X102333333Y-76985727D02*
X102285714Y-77176203D01*
X102285714Y-77176203D02*
X102238095Y-77271441D01*
X102238095Y-77271441D02*
X102142857Y-77366680D01*
X102142857Y-77366680D02*
X102000000Y-77414299D01*
X102000000Y-77414299D02*
X101761905Y-77414299D01*
X103238095Y-76414299D02*
X102761905Y-76414299D01*
X102761905Y-76414299D02*
X102714286Y-76890489D01*
X102714286Y-76890489D02*
X102761905Y-76842870D01*
X102761905Y-76842870D02*
X102857143Y-76795251D01*
X102857143Y-76795251D02*
X103095238Y-76795251D01*
X103095238Y-76795251D02*
X103190476Y-76842870D01*
X103190476Y-76842870D02*
X103238095Y-76890489D01*
X103238095Y-76890489D02*
X103285714Y-76985727D01*
X103285714Y-76985727D02*
X103285714Y-77223822D01*
X103285714Y-77223822D02*
X103238095Y-77319060D01*
X103238095Y-77319060D02*
X103190476Y-77366680D01*
X103190476Y-77366680D02*
X103095238Y-77414299D01*
X103095238Y-77414299D02*
X102857143Y-77414299D01*
X102857143Y-77414299D02*
X102761905Y-77366680D01*
X102761905Y-77366680D02*
X102714286Y-77319060D01*
X86454299Y-66738094D02*
X85454299Y-66738094D01*
X85454299Y-66738094D02*
X85454299Y-66499999D01*
X85454299Y-66499999D02*
X85501918Y-66357142D01*
X85501918Y-66357142D02*
X85597156Y-66261904D01*
X85597156Y-66261904D02*
X85692394Y-66214285D01*
X85692394Y-66214285D02*
X85882870Y-66166666D01*
X85882870Y-66166666D02*
X86025727Y-66166666D01*
X86025727Y-66166666D02*
X86216203Y-66214285D01*
X86216203Y-66214285D02*
X86311441Y-66261904D01*
X86311441Y-66261904D02*
X86406680Y-66357142D01*
X86406680Y-66357142D02*
X86454299Y-66499999D01*
X86454299Y-66499999D02*
X86454299Y-66738094D01*
X85787632Y-65309523D02*
X86454299Y-65309523D01*
X85406680Y-65547618D02*
X86120965Y-65785713D01*
X86120965Y-65785713D02*
X86120965Y-65166666D01*
X84454299Y-64761904D02*
X83454299Y-64761904D01*
X84454299Y-64190476D02*
X83882870Y-64619047D01*
X83454299Y-64190476D02*
X84025727Y-64761904D01*
X108104299Y-74642857D02*
X107628108Y-74976190D01*
X108104299Y-75214285D02*
X107104299Y-75214285D01*
X107104299Y-75214285D02*
X107104299Y-74833333D01*
X107104299Y-74833333D02*
X107151918Y-74738095D01*
X107151918Y-74738095D02*
X107199537Y-74690476D01*
X107199537Y-74690476D02*
X107294775Y-74642857D01*
X107294775Y-74642857D02*
X107437632Y-74642857D01*
X107437632Y-74642857D02*
X107532870Y-74690476D01*
X107532870Y-74690476D02*
X107580489Y-74738095D01*
X107580489Y-74738095D02*
X107628108Y-74833333D01*
X107628108Y-74833333D02*
X107628108Y-75214285D01*
X108104299Y-73690476D02*
X108104299Y-74261904D01*
X108104299Y-73976190D02*
X107104299Y-73976190D01*
X107104299Y-73976190D02*
X107247156Y-74071428D01*
X107247156Y-74071428D02*
X107342394Y-74166666D01*
X107342394Y-74166666D02*
X107390013Y-74261904D01*
X107104299Y-72785714D02*
X107104299Y-73261904D01*
X107104299Y-73261904D02*
X107580489Y-73309523D01*
X107580489Y-73309523D02*
X107532870Y-73261904D01*
X107532870Y-73261904D02*
X107485251Y-73166666D01*
X107485251Y-73166666D02*
X107485251Y-72928571D01*
X107485251Y-72928571D02*
X107532870Y-72833333D01*
X107532870Y-72833333D02*
X107580489Y-72785714D01*
X107580489Y-72785714D02*
X107675727Y-72738095D01*
X107675727Y-72738095D02*
X107913822Y-72738095D01*
X107913822Y-72738095D02*
X108009060Y-72785714D01*
X108009060Y-72785714D02*
X108056680Y-72833333D01*
X108056680Y-72833333D02*
X108104299Y-72928571D01*
X108104299Y-72928571D02*
X108104299Y-73166666D01*
X108104299Y-73166666D02*
X108056680Y-73261904D01*
X108056680Y-73261904D02*
X108009060Y-73309523D01*
X70333333Y-60109060D02*
X70285714Y-60156680D01*
X70285714Y-60156680D02*
X70142857Y-60204299D01*
X70142857Y-60204299D02*
X70047619Y-60204299D01*
X70047619Y-60204299D02*
X69904762Y-60156680D01*
X69904762Y-60156680D02*
X69809524Y-60061441D01*
X69809524Y-60061441D02*
X69761905Y-59966203D01*
X69761905Y-59966203D02*
X69714286Y-59775727D01*
X69714286Y-59775727D02*
X69714286Y-59632870D01*
X69714286Y-59632870D02*
X69761905Y-59442394D01*
X69761905Y-59442394D02*
X69809524Y-59347156D01*
X69809524Y-59347156D02*
X69904762Y-59251918D01*
X69904762Y-59251918D02*
X70047619Y-59204299D01*
X70047619Y-59204299D02*
X70142857Y-59204299D01*
X70142857Y-59204299D02*
X70285714Y-59251918D01*
X70285714Y-59251918D02*
X70333333Y-59299537D01*
X70904762Y-59632870D02*
X70809524Y-59585251D01*
X70809524Y-59585251D02*
X70761905Y-59537632D01*
X70761905Y-59537632D02*
X70714286Y-59442394D01*
X70714286Y-59442394D02*
X70714286Y-59394775D01*
X70714286Y-59394775D02*
X70761905Y-59299537D01*
X70761905Y-59299537D02*
X70809524Y-59251918D01*
X70809524Y-59251918D02*
X70904762Y-59204299D01*
X70904762Y-59204299D02*
X71095238Y-59204299D01*
X71095238Y-59204299D02*
X71190476Y-59251918D01*
X71190476Y-59251918D02*
X71238095Y-59299537D01*
X71238095Y-59299537D02*
X71285714Y-59394775D01*
X71285714Y-59394775D02*
X71285714Y-59442394D01*
X71285714Y-59442394D02*
X71238095Y-59537632D01*
X71238095Y-59537632D02*
X71190476Y-59585251D01*
X71190476Y-59585251D02*
X71095238Y-59632870D01*
X71095238Y-59632870D02*
X70904762Y-59632870D01*
X70904762Y-59632870D02*
X70809524Y-59680489D01*
X70809524Y-59680489D02*
X70761905Y-59728108D01*
X70761905Y-59728108D02*
X70714286Y-59823346D01*
X70714286Y-59823346D02*
X70714286Y-60013822D01*
X70714286Y-60013822D02*
X70761905Y-60109060D01*
X70761905Y-60109060D02*
X70809524Y-60156680D01*
X70809524Y-60156680D02*
X70904762Y-60204299D01*
X70904762Y-60204299D02*
X71095238Y-60204299D01*
X71095238Y-60204299D02*
X71190476Y-60156680D01*
X71190476Y-60156680D02*
X71238095Y-60109060D01*
X71238095Y-60109060D02*
X71285714Y-60013822D01*
X71285714Y-60013822D02*
X71285714Y-59823346D01*
X71285714Y-59823346D02*
X71238095Y-59728108D01*
X71238095Y-59728108D02*
X71190476Y-59680489D01*
X71190476Y-59680489D02*
X71095238Y-59632870D01*
X40261905Y-81954299D02*
X40261905Y-80954299D01*
X40261905Y-80954299D02*
X40500000Y-80954299D01*
X40500000Y-80954299D02*
X40642857Y-81001918D01*
X40642857Y-81001918D02*
X40738095Y-81097156D01*
X40738095Y-81097156D02*
X40785714Y-81192394D01*
X40785714Y-81192394D02*
X40833333Y-81382870D01*
X40833333Y-81382870D02*
X40833333Y-81525727D01*
X40833333Y-81525727D02*
X40785714Y-81716203D01*
X40785714Y-81716203D02*
X40738095Y-81811441D01*
X40738095Y-81811441D02*
X40642857Y-81906680D01*
X40642857Y-81906680D02*
X40500000Y-81954299D01*
X40500000Y-81954299D02*
X40261905Y-81954299D01*
X41214286Y-81049537D02*
X41261905Y-81001918D01*
X41261905Y-81001918D02*
X41357143Y-80954299D01*
X41357143Y-80954299D02*
X41595238Y-80954299D01*
X41595238Y-80954299D02*
X41690476Y-81001918D01*
X41690476Y-81001918D02*
X41738095Y-81049537D01*
X41738095Y-81049537D02*
X41785714Y-81144775D01*
X41785714Y-81144775D02*
X41785714Y-81240013D01*
X41785714Y-81240013D02*
X41738095Y-81382870D01*
X41738095Y-81382870D02*
X41166667Y-81954299D01*
X41166667Y-81954299D02*
X41785714Y-81954299D01*
X40511905Y-79454299D02*
X40511905Y-78454299D01*
X40511905Y-78454299D02*
X40750000Y-78454299D01*
X40750000Y-78454299D02*
X40892857Y-78501918D01*
X40892857Y-78501918D02*
X40988095Y-78597156D01*
X40988095Y-78597156D02*
X41035714Y-78692394D01*
X41035714Y-78692394D02*
X41083333Y-78882870D01*
X41083333Y-78882870D02*
X41083333Y-79025727D01*
X41083333Y-79025727D02*
X41035714Y-79216203D01*
X41035714Y-79216203D02*
X40988095Y-79311441D01*
X40988095Y-79311441D02*
X40892857Y-79406680D01*
X40892857Y-79406680D02*
X40750000Y-79454299D01*
X40750000Y-79454299D02*
X40511905Y-79454299D01*
X42035714Y-79454299D02*
X41464286Y-79454299D01*
X41750000Y-79454299D02*
X41750000Y-78454299D01*
X41750000Y-78454299D02*
X41654762Y-78597156D01*
X41654762Y-78597156D02*
X41559524Y-78692394D01*
X41559524Y-78692394D02*
X41464286Y-78740013D01*
X57238095Y-59954299D02*
X57238095Y-60763822D01*
X57238095Y-60763822D02*
X57285714Y-60859060D01*
X57285714Y-60859060D02*
X57333333Y-60906680D01*
X57333333Y-60906680D02*
X57428571Y-60954299D01*
X57428571Y-60954299D02*
X57619047Y-60954299D01*
X57619047Y-60954299D02*
X57714285Y-60906680D01*
X57714285Y-60906680D02*
X57761904Y-60859060D01*
X57761904Y-60859060D02*
X57809523Y-60763822D01*
X57809523Y-60763822D02*
X57809523Y-59954299D01*
X58238095Y-60049537D02*
X58285714Y-60001918D01*
X58285714Y-60001918D02*
X58380952Y-59954299D01*
X58380952Y-59954299D02*
X58619047Y-59954299D01*
X58619047Y-59954299D02*
X58714285Y-60001918D01*
X58714285Y-60001918D02*
X58761904Y-60049537D01*
X58761904Y-60049537D02*
X58809523Y-60144775D01*
X58809523Y-60144775D02*
X58809523Y-60240013D01*
X58809523Y-60240013D02*
X58761904Y-60382870D01*
X58761904Y-60382870D02*
X58190476Y-60954299D01*
X58190476Y-60954299D02*
X58809523Y-60954299D01*
X43666666Y-65280489D02*
X43333333Y-65280489D01*
X43333333Y-65804299D02*
X43333333Y-64804299D01*
X43333333Y-64804299D02*
X43809523Y-64804299D01*
X44714285Y-65804299D02*
X44142857Y-65804299D01*
X44428571Y-65804299D02*
X44428571Y-64804299D01*
X44428571Y-64804299D02*
X44333333Y-64947156D01*
X44333333Y-64947156D02*
X44238095Y-65042394D01*
X44238095Y-65042394D02*
X44142857Y-65090013D01*
X42083333Y-75454299D02*
X41750000Y-74978108D01*
X41511905Y-75454299D02*
X41511905Y-74454299D01*
X41511905Y-74454299D02*
X41892857Y-74454299D01*
X41892857Y-74454299D02*
X41988095Y-74501918D01*
X41988095Y-74501918D02*
X42035714Y-74549537D01*
X42035714Y-74549537D02*
X42083333Y-74644775D01*
X42083333Y-74644775D02*
X42083333Y-74787632D01*
X42083333Y-74787632D02*
X42035714Y-74882870D01*
X42035714Y-74882870D02*
X41988095Y-74930489D01*
X41988095Y-74930489D02*
X41892857Y-74978108D01*
X41892857Y-74978108D02*
X41511905Y-74978108D01*
X42416667Y-74454299D02*
X43035714Y-74454299D01*
X43035714Y-74454299D02*
X42702381Y-74835251D01*
X42702381Y-74835251D02*
X42845238Y-74835251D01*
X42845238Y-74835251D02*
X42940476Y-74882870D01*
X42940476Y-74882870D02*
X42988095Y-74930489D01*
X42988095Y-74930489D02*
X43035714Y-75025727D01*
X43035714Y-75025727D02*
X43035714Y-75263822D01*
X43035714Y-75263822D02*
X42988095Y-75359060D01*
X42988095Y-75359060D02*
X42940476Y-75406680D01*
X42940476Y-75406680D02*
X42845238Y-75454299D01*
X42845238Y-75454299D02*
X42559524Y-75454299D01*
X42559524Y-75454299D02*
X42464286Y-75406680D01*
X42464286Y-75406680D02*
X42416667Y-75359060D01*
X45833333Y-82804299D02*
X45500000Y-82328108D01*
X45261905Y-82804299D02*
X45261905Y-81804299D01*
X45261905Y-81804299D02*
X45642857Y-81804299D01*
X45642857Y-81804299D02*
X45738095Y-81851918D01*
X45738095Y-81851918D02*
X45785714Y-81899537D01*
X45785714Y-81899537D02*
X45833333Y-81994775D01*
X45833333Y-81994775D02*
X45833333Y-82137632D01*
X45833333Y-82137632D02*
X45785714Y-82232870D01*
X45785714Y-82232870D02*
X45738095Y-82280489D01*
X45738095Y-82280489D02*
X45642857Y-82328108D01*
X45642857Y-82328108D02*
X45261905Y-82328108D01*
X46690476Y-82137632D02*
X46690476Y-82804299D01*
X46452381Y-81756680D02*
X46214286Y-82470965D01*
X46214286Y-82470965D02*
X46833333Y-82470965D01*
X51583333Y-68859060D02*
X51535714Y-68906680D01*
X51535714Y-68906680D02*
X51392857Y-68954299D01*
X51392857Y-68954299D02*
X51297619Y-68954299D01*
X51297619Y-68954299D02*
X51154762Y-68906680D01*
X51154762Y-68906680D02*
X51059524Y-68811441D01*
X51059524Y-68811441D02*
X51011905Y-68716203D01*
X51011905Y-68716203D02*
X50964286Y-68525727D01*
X50964286Y-68525727D02*
X50964286Y-68382870D01*
X50964286Y-68382870D02*
X51011905Y-68192394D01*
X51011905Y-68192394D02*
X51059524Y-68097156D01*
X51059524Y-68097156D02*
X51154762Y-68001918D01*
X51154762Y-68001918D02*
X51297619Y-67954299D01*
X51297619Y-67954299D02*
X51392857Y-67954299D01*
X51392857Y-67954299D02*
X51535714Y-68001918D01*
X51535714Y-68001918D02*
X51583333Y-68049537D01*
X51916667Y-67954299D02*
X52583333Y-67954299D01*
X52583333Y-67954299D02*
X52154762Y-68954299D01*
X59833333Y-72104299D02*
X59500000Y-71628108D01*
X59261905Y-72104299D02*
X59261905Y-71104299D01*
X59261905Y-71104299D02*
X59642857Y-71104299D01*
X59642857Y-71104299D02*
X59738095Y-71151918D01*
X59738095Y-71151918D02*
X59785714Y-71199537D01*
X59785714Y-71199537D02*
X59833333Y-71294775D01*
X59833333Y-71294775D02*
X59833333Y-71437632D01*
X59833333Y-71437632D02*
X59785714Y-71532870D01*
X59785714Y-71532870D02*
X59738095Y-71580489D01*
X59738095Y-71580489D02*
X59642857Y-71628108D01*
X59642857Y-71628108D02*
X59261905Y-71628108D01*
X60404762Y-71532870D02*
X60309524Y-71485251D01*
X60309524Y-71485251D02*
X60261905Y-71437632D01*
X60261905Y-71437632D02*
X60214286Y-71342394D01*
X60214286Y-71342394D02*
X60214286Y-71294775D01*
X60214286Y-71294775D02*
X60261905Y-71199537D01*
X60261905Y-71199537D02*
X60309524Y-71151918D01*
X60309524Y-71151918D02*
X60404762Y-71104299D01*
X60404762Y-71104299D02*
X60595238Y-71104299D01*
X60595238Y-71104299D02*
X60690476Y-71151918D01*
X60690476Y-71151918D02*
X60738095Y-71199537D01*
X60738095Y-71199537D02*
X60785714Y-71294775D01*
X60785714Y-71294775D02*
X60785714Y-71342394D01*
X60785714Y-71342394D02*
X60738095Y-71437632D01*
X60738095Y-71437632D02*
X60690476Y-71485251D01*
X60690476Y-71485251D02*
X60595238Y-71532870D01*
X60595238Y-71532870D02*
X60404762Y-71532870D01*
X60404762Y-71532870D02*
X60309524Y-71580489D01*
X60309524Y-71580489D02*
X60261905Y-71628108D01*
X60261905Y-71628108D02*
X60214286Y-71723346D01*
X60214286Y-71723346D02*
X60214286Y-71913822D01*
X60214286Y-71913822D02*
X60261905Y-72009060D01*
X60261905Y-72009060D02*
X60309524Y-72056680D01*
X60309524Y-72056680D02*
X60404762Y-72104299D01*
X60404762Y-72104299D02*
X60595238Y-72104299D01*
X60595238Y-72104299D02*
X60690476Y-72056680D01*
X60690476Y-72056680D02*
X60738095Y-72009060D01*
X60738095Y-72009060D02*
X60785714Y-71913822D01*
X60785714Y-71913822D02*
X60785714Y-71723346D01*
X60785714Y-71723346D02*
X60738095Y-71628108D01*
X60738095Y-71628108D02*
X60690476Y-71580489D01*
X60690476Y-71580489D02*
X60595238Y-71532870D01*
X72261905Y-69454299D02*
X72261905Y-68454299D01*
X72261905Y-68454299D02*
X72500000Y-68454299D01*
X72500000Y-68454299D02*
X72642857Y-68501918D01*
X72642857Y-68501918D02*
X72738095Y-68597156D01*
X72738095Y-68597156D02*
X72785714Y-68692394D01*
X72785714Y-68692394D02*
X72833333Y-68882870D01*
X72833333Y-68882870D02*
X72833333Y-69025727D01*
X72833333Y-69025727D02*
X72785714Y-69216203D01*
X72785714Y-69216203D02*
X72738095Y-69311441D01*
X72738095Y-69311441D02*
X72642857Y-69406680D01*
X72642857Y-69406680D02*
X72500000Y-69454299D01*
X72500000Y-69454299D02*
X72261905Y-69454299D01*
X73166667Y-68454299D02*
X73785714Y-68454299D01*
X73785714Y-68454299D02*
X73452381Y-68835251D01*
X73452381Y-68835251D02*
X73595238Y-68835251D01*
X73595238Y-68835251D02*
X73690476Y-68882870D01*
X73690476Y-68882870D02*
X73738095Y-68930489D01*
X73738095Y-68930489D02*
X73785714Y-69025727D01*
X73785714Y-69025727D02*
X73785714Y-69263822D01*
X73785714Y-69263822D02*
X73738095Y-69359060D01*
X73738095Y-69359060D02*
X73690476Y-69406680D01*
X73690476Y-69406680D02*
X73595238Y-69454299D01*
X73595238Y-69454299D02*
X73309524Y-69454299D01*
X73309524Y-69454299D02*
X73214286Y-69406680D01*
X73214286Y-69406680D02*
X73166667Y-69359060D01*
X60554299Y-85642857D02*
X60078108Y-85976190D01*
X60554299Y-86214285D02*
X59554299Y-86214285D01*
X59554299Y-86214285D02*
X59554299Y-85833333D01*
X59554299Y-85833333D02*
X59601918Y-85738095D01*
X59601918Y-85738095D02*
X59649537Y-85690476D01*
X59649537Y-85690476D02*
X59744775Y-85642857D01*
X59744775Y-85642857D02*
X59887632Y-85642857D01*
X59887632Y-85642857D02*
X59982870Y-85690476D01*
X59982870Y-85690476D02*
X60030489Y-85738095D01*
X60030489Y-85738095D02*
X60078108Y-85833333D01*
X60078108Y-85833333D02*
X60078108Y-86214285D01*
X60554299Y-84690476D02*
X60554299Y-85261904D01*
X60554299Y-84976190D02*
X59554299Y-84976190D01*
X59554299Y-84976190D02*
X59697156Y-85071428D01*
X59697156Y-85071428D02*
X59792394Y-85166666D01*
X59792394Y-85166666D02*
X59840013Y-85261904D01*
X59554299Y-84071428D02*
X59554299Y-83976190D01*
X59554299Y-83976190D02*
X59601918Y-83880952D01*
X59601918Y-83880952D02*
X59649537Y-83833333D01*
X59649537Y-83833333D02*
X59744775Y-83785714D01*
X59744775Y-83785714D02*
X59935251Y-83738095D01*
X59935251Y-83738095D02*
X60173346Y-83738095D01*
X60173346Y-83738095D02*
X60363822Y-83785714D01*
X60363822Y-83785714D02*
X60459060Y-83833333D01*
X60459060Y-83833333D02*
X60506680Y-83880952D01*
X60506680Y-83880952D02*
X60554299Y-83976190D01*
X60554299Y-83976190D02*
X60554299Y-84071428D01*
X60554299Y-84071428D02*
X60506680Y-84166666D01*
X60506680Y-84166666D02*
X60459060Y-84214285D01*
X60459060Y-84214285D02*
X60363822Y-84261904D01*
X60363822Y-84261904D02*
X60173346Y-84309523D01*
X60173346Y-84309523D02*
X59935251Y-84309523D01*
X59935251Y-84309523D02*
X59744775Y-84261904D01*
X59744775Y-84261904D02*
X59649537Y-84214285D01*
X59649537Y-84214285D02*
X59601918Y-84166666D01*
X59601918Y-84166666D02*
X59554299Y-84071428D01*
X61549537Y-79345238D02*
X61501918Y-79440476D01*
X61501918Y-79440476D02*
X61406680Y-79535714D01*
X61406680Y-79535714D02*
X61263822Y-79678571D01*
X61263822Y-79678571D02*
X61216203Y-79773809D01*
X61216203Y-79773809D02*
X61216203Y-79869047D01*
X61454299Y-79821428D02*
X61406680Y-79916666D01*
X61406680Y-79916666D02*
X61311441Y-80011904D01*
X61311441Y-80011904D02*
X61120965Y-80059523D01*
X61120965Y-80059523D02*
X60787632Y-80059523D01*
X60787632Y-80059523D02*
X60597156Y-80011904D01*
X60597156Y-80011904D02*
X60501918Y-79916666D01*
X60501918Y-79916666D02*
X60454299Y-79821428D01*
X60454299Y-79821428D02*
X60454299Y-79630952D01*
X60454299Y-79630952D02*
X60501918Y-79535714D01*
X60501918Y-79535714D02*
X60597156Y-79440476D01*
X60597156Y-79440476D02*
X60787632Y-79392857D01*
X60787632Y-79392857D02*
X61120965Y-79392857D01*
X61120965Y-79392857D02*
X61311441Y-79440476D01*
X61311441Y-79440476D02*
X61406680Y-79535714D01*
X61406680Y-79535714D02*
X61454299Y-79630952D01*
X61454299Y-79630952D02*
X61454299Y-79821428D01*
X60787632Y-78535714D02*
X61454299Y-78535714D01*
X60406680Y-78773809D02*
X61120965Y-79011904D01*
X61120965Y-79011904D02*
X61120965Y-78392857D01*
X58104299Y-77166666D02*
X57628108Y-77499999D01*
X58104299Y-77738094D02*
X57104299Y-77738094D01*
X57104299Y-77738094D02*
X57104299Y-77357142D01*
X57104299Y-77357142D02*
X57151918Y-77261904D01*
X57151918Y-77261904D02*
X57199537Y-77214285D01*
X57199537Y-77214285D02*
X57294775Y-77166666D01*
X57294775Y-77166666D02*
X57437632Y-77166666D01*
X57437632Y-77166666D02*
X57532870Y-77214285D01*
X57532870Y-77214285D02*
X57580489Y-77261904D01*
X57580489Y-77261904D02*
X57628108Y-77357142D01*
X57628108Y-77357142D02*
X57628108Y-77738094D01*
X58104299Y-76690475D02*
X58104299Y-76499999D01*
X58104299Y-76499999D02*
X58056680Y-76404761D01*
X58056680Y-76404761D02*
X58009060Y-76357142D01*
X58009060Y-76357142D02*
X57866203Y-76261904D01*
X57866203Y-76261904D02*
X57675727Y-76214285D01*
X57675727Y-76214285D02*
X57294775Y-76214285D01*
X57294775Y-76214285D02*
X57199537Y-76261904D01*
X57199537Y-76261904D02*
X57151918Y-76309523D01*
X57151918Y-76309523D02*
X57104299Y-76404761D01*
X57104299Y-76404761D02*
X57104299Y-76595237D01*
X57104299Y-76595237D02*
X57151918Y-76690475D01*
X57151918Y-76690475D02*
X57199537Y-76738094D01*
X57199537Y-76738094D02*
X57294775Y-76785713D01*
X57294775Y-76785713D02*
X57532870Y-76785713D01*
X57532870Y-76785713D02*
X57628108Y-76738094D01*
X57628108Y-76738094D02*
X57675727Y-76690475D01*
X57675727Y-76690475D02*
X57723346Y-76595237D01*
X57723346Y-76595237D02*
X57723346Y-76404761D01*
X57723346Y-76404761D02*
X57675727Y-76309523D01*
X57675727Y-76309523D02*
X57628108Y-76261904D01*
X57628108Y-76261904D02*
X57532870Y-76214285D01*
X58299537Y-79095238D02*
X58251918Y-79190476D01*
X58251918Y-79190476D02*
X58156680Y-79285714D01*
X58156680Y-79285714D02*
X58013822Y-79428571D01*
X58013822Y-79428571D02*
X57966203Y-79523809D01*
X57966203Y-79523809D02*
X57966203Y-79619047D01*
X58204299Y-79571428D02*
X58156680Y-79666666D01*
X58156680Y-79666666D02*
X58061441Y-79761904D01*
X58061441Y-79761904D02*
X57870965Y-79809523D01*
X57870965Y-79809523D02*
X57537632Y-79809523D01*
X57537632Y-79809523D02*
X57347156Y-79761904D01*
X57347156Y-79761904D02*
X57251918Y-79666666D01*
X57251918Y-79666666D02*
X57204299Y-79571428D01*
X57204299Y-79571428D02*
X57204299Y-79380952D01*
X57204299Y-79380952D02*
X57251918Y-79285714D01*
X57251918Y-79285714D02*
X57347156Y-79190476D01*
X57347156Y-79190476D02*
X57537632Y-79142857D01*
X57537632Y-79142857D02*
X57870965Y-79142857D01*
X57870965Y-79142857D02*
X58061441Y-79190476D01*
X58061441Y-79190476D02*
X58156680Y-79285714D01*
X58156680Y-79285714D02*
X58204299Y-79380952D01*
X58204299Y-79380952D02*
X58204299Y-79571428D01*
X57204299Y-78809523D02*
X57204299Y-78190476D01*
X57204299Y-78190476D02*
X57585251Y-78523809D01*
X57585251Y-78523809D02*
X57585251Y-78380952D01*
X57585251Y-78380952D02*
X57632870Y-78285714D01*
X57632870Y-78285714D02*
X57680489Y-78238095D01*
X57680489Y-78238095D02*
X57775727Y-78190476D01*
X57775727Y-78190476D02*
X58013822Y-78190476D01*
X58013822Y-78190476D02*
X58109060Y-78238095D01*
X58109060Y-78238095D02*
X58156680Y-78285714D01*
X58156680Y-78285714D02*
X58204299Y-78380952D01*
X58204299Y-78380952D02*
X58204299Y-78666666D01*
X58204299Y-78666666D02*
X58156680Y-78761904D01*
X58156680Y-78761904D02*
X58109060Y-78809523D01*
X54354299Y-85166666D02*
X53878108Y-85499999D01*
X54354299Y-85738094D02*
X53354299Y-85738094D01*
X53354299Y-85738094D02*
X53354299Y-85357142D01*
X53354299Y-85357142D02*
X53401918Y-85261904D01*
X53401918Y-85261904D02*
X53449537Y-85214285D01*
X53449537Y-85214285D02*
X53544775Y-85166666D01*
X53544775Y-85166666D02*
X53687632Y-85166666D01*
X53687632Y-85166666D02*
X53782870Y-85214285D01*
X53782870Y-85214285D02*
X53830489Y-85261904D01*
X53830489Y-85261904D02*
X53878108Y-85357142D01*
X53878108Y-85357142D02*
X53878108Y-85738094D01*
X53354299Y-84261904D02*
X53354299Y-84738094D01*
X53354299Y-84738094D02*
X53830489Y-84785713D01*
X53830489Y-84785713D02*
X53782870Y-84738094D01*
X53782870Y-84738094D02*
X53735251Y-84642856D01*
X53735251Y-84642856D02*
X53735251Y-84404761D01*
X53735251Y-84404761D02*
X53782870Y-84309523D01*
X53782870Y-84309523D02*
X53830489Y-84261904D01*
X53830489Y-84261904D02*
X53925727Y-84214285D01*
X53925727Y-84214285D02*
X54163822Y-84214285D01*
X54163822Y-84214285D02*
X54259060Y-84261904D01*
X54259060Y-84261904D02*
X54306680Y-84309523D01*
X54306680Y-84309523D02*
X54354299Y-84404761D01*
X54354299Y-84404761D02*
X54354299Y-84642856D01*
X54354299Y-84642856D02*
X54306680Y-84738094D01*
X54306680Y-84738094D02*
X54259060Y-84785713D01*
X54604299Y-77166666D02*
X54128108Y-77499999D01*
X54604299Y-77738094D02*
X53604299Y-77738094D01*
X53604299Y-77738094D02*
X53604299Y-77357142D01*
X53604299Y-77357142D02*
X53651918Y-77261904D01*
X53651918Y-77261904D02*
X53699537Y-77214285D01*
X53699537Y-77214285D02*
X53794775Y-77166666D01*
X53794775Y-77166666D02*
X53937632Y-77166666D01*
X53937632Y-77166666D02*
X54032870Y-77214285D01*
X54032870Y-77214285D02*
X54080489Y-77261904D01*
X54080489Y-77261904D02*
X54128108Y-77357142D01*
X54128108Y-77357142D02*
X54128108Y-77738094D01*
X53604299Y-76309523D02*
X53604299Y-76499999D01*
X53604299Y-76499999D02*
X53651918Y-76595237D01*
X53651918Y-76595237D02*
X53699537Y-76642856D01*
X53699537Y-76642856D02*
X53842394Y-76738094D01*
X53842394Y-76738094D02*
X54032870Y-76785713D01*
X54032870Y-76785713D02*
X54413822Y-76785713D01*
X54413822Y-76785713D02*
X54509060Y-76738094D01*
X54509060Y-76738094D02*
X54556680Y-76690475D01*
X54556680Y-76690475D02*
X54604299Y-76595237D01*
X54604299Y-76595237D02*
X54604299Y-76404761D01*
X54604299Y-76404761D02*
X54556680Y-76309523D01*
X54556680Y-76309523D02*
X54509060Y-76261904D01*
X54509060Y-76261904D02*
X54413822Y-76214285D01*
X54413822Y-76214285D02*
X54175727Y-76214285D01*
X54175727Y-76214285D02*
X54080489Y-76261904D01*
X54080489Y-76261904D02*
X54032870Y-76309523D01*
X54032870Y-76309523D02*
X53985251Y-76404761D01*
X53985251Y-76404761D02*
X53985251Y-76595237D01*
X53985251Y-76595237D02*
X54032870Y-76690475D01*
X54032870Y-76690475D02*
X54080489Y-76738094D01*
X54080489Y-76738094D02*
X54175727Y-76785713D01*
X57454299Y-85166666D02*
X56978108Y-85499999D01*
X57454299Y-85738094D02*
X56454299Y-85738094D01*
X56454299Y-85738094D02*
X56454299Y-85357142D01*
X56454299Y-85357142D02*
X56501918Y-85261904D01*
X56501918Y-85261904D02*
X56549537Y-85214285D01*
X56549537Y-85214285D02*
X56644775Y-85166666D01*
X56644775Y-85166666D02*
X56787632Y-85166666D01*
X56787632Y-85166666D02*
X56882870Y-85214285D01*
X56882870Y-85214285D02*
X56930489Y-85261904D01*
X56930489Y-85261904D02*
X56978108Y-85357142D01*
X56978108Y-85357142D02*
X56978108Y-85738094D01*
X56454299Y-84833332D02*
X56454299Y-84166666D01*
X56454299Y-84166666D02*
X57454299Y-84595237D01*
X51489537Y-79095238D02*
X51441918Y-79190476D01*
X51441918Y-79190476D02*
X51346680Y-79285714D01*
X51346680Y-79285714D02*
X51203822Y-79428571D01*
X51203822Y-79428571D02*
X51156203Y-79523809D01*
X51156203Y-79523809D02*
X51156203Y-79619047D01*
X51394299Y-79571428D02*
X51346680Y-79666666D01*
X51346680Y-79666666D02*
X51251441Y-79761904D01*
X51251441Y-79761904D02*
X51060965Y-79809523D01*
X51060965Y-79809523D02*
X50727632Y-79809523D01*
X50727632Y-79809523D02*
X50537156Y-79761904D01*
X50537156Y-79761904D02*
X50441918Y-79666666D01*
X50441918Y-79666666D02*
X50394299Y-79571428D01*
X50394299Y-79571428D02*
X50394299Y-79380952D01*
X50394299Y-79380952D02*
X50441918Y-79285714D01*
X50441918Y-79285714D02*
X50537156Y-79190476D01*
X50537156Y-79190476D02*
X50727632Y-79142857D01*
X50727632Y-79142857D02*
X51060965Y-79142857D01*
X51060965Y-79142857D02*
X51251441Y-79190476D01*
X51251441Y-79190476D02*
X51346680Y-79285714D01*
X51346680Y-79285714D02*
X51394299Y-79380952D01*
X51394299Y-79380952D02*
X51394299Y-79571428D01*
X51394299Y-78190476D02*
X51394299Y-78761904D01*
X51394299Y-78476190D02*
X50394299Y-78476190D01*
X50394299Y-78476190D02*
X50537156Y-78571428D01*
X50537156Y-78571428D02*
X50632394Y-78666666D01*
X50632394Y-78666666D02*
X50680013Y-78761904D01*
X61604299Y-77442857D02*
X61128108Y-77776190D01*
X61604299Y-78014285D02*
X60604299Y-78014285D01*
X60604299Y-78014285D02*
X60604299Y-77633333D01*
X60604299Y-77633333D02*
X60651918Y-77538095D01*
X60651918Y-77538095D02*
X60699537Y-77490476D01*
X60699537Y-77490476D02*
X60794775Y-77442857D01*
X60794775Y-77442857D02*
X60937632Y-77442857D01*
X60937632Y-77442857D02*
X61032870Y-77490476D01*
X61032870Y-77490476D02*
X61080489Y-77538095D01*
X61080489Y-77538095D02*
X61128108Y-77633333D01*
X61128108Y-77633333D02*
X61128108Y-78014285D01*
X61604299Y-76490476D02*
X61604299Y-77061904D01*
X61604299Y-76776190D02*
X60604299Y-76776190D01*
X60604299Y-76776190D02*
X60747156Y-76871428D01*
X60747156Y-76871428D02*
X60842394Y-76966666D01*
X60842394Y-76966666D02*
X60890013Y-77061904D01*
X61604299Y-75538095D02*
X61604299Y-76109523D01*
X61604299Y-75823809D02*
X60604299Y-75823809D01*
X60604299Y-75823809D02*
X60747156Y-75919047D01*
X60747156Y-75919047D02*
X60842394Y-76014285D01*
X60842394Y-76014285D02*
X60890013Y-76109523D01*
X63704299Y-85642857D02*
X63228108Y-85976190D01*
X63704299Y-86214285D02*
X62704299Y-86214285D01*
X62704299Y-86214285D02*
X62704299Y-85833333D01*
X62704299Y-85833333D02*
X62751918Y-85738095D01*
X62751918Y-85738095D02*
X62799537Y-85690476D01*
X62799537Y-85690476D02*
X62894775Y-85642857D01*
X62894775Y-85642857D02*
X63037632Y-85642857D01*
X63037632Y-85642857D02*
X63132870Y-85690476D01*
X63132870Y-85690476D02*
X63180489Y-85738095D01*
X63180489Y-85738095D02*
X63228108Y-85833333D01*
X63228108Y-85833333D02*
X63228108Y-86214285D01*
X63704299Y-84690476D02*
X63704299Y-85261904D01*
X63704299Y-84976190D02*
X62704299Y-84976190D01*
X62704299Y-84976190D02*
X62847156Y-85071428D01*
X62847156Y-85071428D02*
X62942394Y-85166666D01*
X62942394Y-85166666D02*
X62990013Y-85261904D01*
X62799537Y-84309523D02*
X62751918Y-84261904D01*
X62751918Y-84261904D02*
X62704299Y-84166666D01*
X62704299Y-84166666D02*
X62704299Y-83928571D01*
X62704299Y-83928571D02*
X62751918Y-83833333D01*
X62751918Y-83833333D02*
X62799537Y-83785714D01*
X62799537Y-83785714D02*
X62894775Y-83738095D01*
X62894775Y-83738095D02*
X62990013Y-83738095D01*
X62990013Y-83738095D02*
X63132870Y-83785714D01*
X63132870Y-83785714D02*
X63704299Y-84357142D01*
X63704299Y-84357142D02*
X63704299Y-83738095D01*
X65104299Y-77642857D02*
X64628108Y-77976190D01*
X65104299Y-78214285D02*
X64104299Y-78214285D01*
X64104299Y-78214285D02*
X64104299Y-77833333D01*
X64104299Y-77833333D02*
X64151918Y-77738095D01*
X64151918Y-77738095D02*
X64199537Y-77690476D01*
X64199537Y-77690476D02*
X64294775Y-77642857D01*
X64294775Y-77642857D02*
X64437632Y-77642857D01*
X64437632Y-77642857D02*
X64532870Y-77690476D01*
X64532870Y-77690476D02*
X64580489Y-77738095D01*
X64580489Y-77738095D02*
X64628108Y-77833333D01*
X64628108Y-77833333D02*
X64628108Y-78214285D01*
X65104299Y-76690476D02*
X65104299Y-77261904D01*
X65104299Y-76976190D02*
X64104299Y-76976190D01*
X64104299Y-76976190D02*
X64247156Y-77071428D01*
X64247156Y-77071428D02*
X64342394Y-77166666D01*
X64342394Y-77166666D02*
X64390013Y-77261904D01*
X64104299Y-76357142D02*
X64104299Y-75738095D01*
X64104299Y-75738095D02*
X64485251Y-76071428D01*
X64485251Y-76071428D02*
X64485251Y-75928571D01*
X64485251Y-75928571D02*
X64532870Y-75833333D01*
X64532870Y-75833333D02*
X64580489Y-75785714D01*
X64580489Y-75785714D02*
X64675727Y-75738095D01*
X64675727Y-75738095D02*
X64913822Y-75738095D01*
X64913822Y-75738095D02*
X65009060Y-75785714D01*
X65009060Y-75785714D02*
X65056680Y-75833333D01*
X65056680Y-75833333D02*
X65104299Y-75928571D01*
X65104299Y-75928571D02*
X65104299Y-76214285D01*
X65104299Y-76214285D02*
X65056680Y-76309523D01*
X65056680Y-76309523D02*
X65009060Y-76357142D01*
X54799537Y-79095238D02*
X54751918Y-79190476D01*
X54751918Y-79190476D02*
X54656680Y-79285714D01*
X54656680Y-79285714D02*
X54513822Y-79428571D01*
X54513822Y-79428571D02*
X54466203Y-79523809D01*
X54466203Y-79523809D02*
X54466203Y-79619047D01*
X54704299Y-79571428D02*
X54656680Y-79666666D01*
X54656680Y-79666666D02*
X54561441Y-79761904D01*
X54561441Y-79761904D02*
X54370965Y-79809523D01*
X54370965Y-79809523D02*
X54037632Y-79809523D01*
X54037632Y-79809523D02*
X53847156Y-79761904D01*
X53847156Y-79761904D02*
X53751918Y-79666666D01*
X53751918Y-79666666D02*
X53704299Y-79571428D01*
X53704299Y-79571428D02*
X53704299Y-79380952D01*
X53704299Y-79380952D02*
X53751918Y-79285714D01*
X53751918Y-79285714D02*
X53847156Y-79190476D01*
X53847156Y-79190476D02*
X54037632Y-79142857D01*
X54037632Y-79142857D02*
X54370965Y-79142857D01*
X54370965Y-79142857D02*
X54561441Y-79190476D01*
X54561441Y-79190476D02*
X54656680Y-79285714D01*
X54656680Y-79285714D02*
X54704299Y-79380952D01*
X54704299Y-79380952D02*
X54704299Y-79571428D01*
X53799537Y-78761904D02*
X53751918Y-78714285D01*
X53751918Y-78714285D02*
X53704299Y-78619047D01*
X53704299Y-78619047D02*
X53704299Y-78380952D01*
X53704299Y-78380952D02*
X53751918Y-78285714D01*
X53751918Y-78285714D02*
X53799537Y-78238095D01*
X53799537Y-78238095D02*
X53894775Y-78190476D01*
X53894775Y-78190476D02*
X53990013Y-78190476D01*
X53990013Y-78190476D02*
X54132870Y-78238095D01*
X54132870Y-78238095D02*
X54704299Y-78809523D01*
X54704299Y-78809523D02*
X54704299Y-78190476D01*
X134141666Y-90004299D02*
X134141666Y-90718584D01*
X134141666Y-90718584D02*
X134094047Y-90861441D01*
X134094047Y-90861441D02*
X133998809Y-90956680D01*
X133998809Y-90956680D02*
X133855952Y-91004299D01*
X133855952Y-91004299D02*
X133760714Y-91004299D01*
X134570238Y-90099537D02*
X134617857Y-90051918D01*
X134617857Y-90051918D02*
X134713095Y-90004299D01*
X134713095Y-90004299D02*
X134951190Y-90004299D01*
X134951190Y-90004299D02*
X135046428Y-90051918D01*
X135046428Y-90051918D02*
X135094047Y-90099537D01*
X135094047Y-90099537D02*
X135141666Y-90194775D01*
X135141666Y-90194775D02*
X135141666Y-90290013D01*
X135141666Y-90290013D02*
X135094047Y-90432870D01*
X135094047Y-90432870D02*
X134522619Y-91004299D01*
X134522619Y-91004299D02*
X135141666Y-91004299D01*
X130154060Y-94526666D02*
X130201680Y-94574285D01*
X130201680Y-94574285D02*
X130249299Y-94717142D01*
X130249299Y-94717142D02*
X130249299Y-94812380D01*
X130249299Y-94812380D02*
X130201680Y-94955237D01*
X130201680Y-94955237D02*
X130106441Y-95050475D01*
X130106441Y-95050475D02*
X130011203Y-95098094D01*
X130011203Y-95098094D02*
X129820727Y-95145713D01*
X129820727Y-95145713D02*
X129677870Y-95145713D01*
X129677870Y-95145713D02*
X129487394Y-95098094D01*
X129487394Y-95098094D02*
X129392156Y-95050475D01*
X129392156Y-95050475D02*
X129296918Y-94955237D01*
X129296918Y-94955237D02*
X129249299Y-94812380D01*
X129249299Y-94812380D02*
X129249299Y-94717142D01*
X129249299Y-94717142D02*
X129296918Y-94574285D01*
X129296918Y-94574285D02*
X129344537Y-94526666D01*
X130249299Y-93574285D02*
X130249299Y-94145713D01*
X130249299Y-93859999D02*
X129249299Y-93859999D01*
X129249299Y-93859999D02*
X129392156Y-93955237D01*
X129392156Y-93955237D02*
X129487394Y-94050475D01*
X129487394Y-94050475D02*
X129535013Y-94145713D01*
X129654299Y-79238094D02*
X128654299Y-79238094D01*
X128654299Y-79238094D02*
X128654299Y-78999999D01*
X128654299Y-78999999D02*
X128701918Y-78857142D01*
X128701918Y-78857142D02*
X128797156Y-78761904D01*
X128797156Y-78761904D02*
X128892394Y-78714285D01*
X128892394Y-78714285D02*
X129082870Y-78666666D01*
X129082870Y-78666666D02*
X129225727Y-78666666D01*
X129225727Y-78666666D02*
X129416203Y-78714285D01*
X129416203Y-78714285D02*
X129511441Y-78761904D01*
X129511441Y-78761904D02*
X129606680Y-78857142D01*
X129606680Y-78857142D02*
X129654299Y-78999999D01*
X129654299Y-78999999D02*
X129654299Y-79238094D01*
X128654299Y-78333332D02*
X128654299Y-77666666D01*
X128654299Y-77666666D02*
X129654299Y-78095237D01*
X131604299Y-74142857D02*
X131128108Y-74476190D01*
X131604299Y-74714285D02*
X130604299Y-74714285D01*
X130604299Y-74714285D02*
X130604299Y-74333333D01*
X130604299Y-74333333D02*
X130651918Y-74238095D01*
X130651918Y-74238095D02*
X130699537Y-74190476D01*
X130699537Y-74190476D02*
X130794775Y-74142857D01*
X130794775Y-74142857D02*
X130937632Y-74142857D01*
X130937632Y-74142857D02*
X131032870Y-74190476D01*
X131032870Y-74190476D02*
X131080489Y-74238095D01*
X131080489Y-74238095D02*
X131128108Y-74333333D01*
X131128108Y-74333333D02*
X131128108Y-74714285D01*
X131604299Y-73190476D02*
X131604299Y-73761904D01*
X131604299Y-73476190D02*
X130604299Y-73476190D01*
X130604299Y-73476190D02*
X130747156Y-73571428D01*
X130747156Y-73571428D02*
X130842394Y-73666666D01*
X130842394Y-73666666D02*
X130890013Y-73761904D01*
X131032870Y-72619047D02*
X130985251Y-72714285D01*
X130985251Y-72714285D02*
X130937632Y-72761904D01*
X130937632Y-72761904D02*
X130842394Y-72809523D01*
X130842394Y-72809523D02*
X130794775Y-72809523D01*
X130794775Y-72809523D02*
X130699537Y-72761904D01*
X130699537Y-72761904D02*
X130651918Y-72714285D01*
X130651918Y-72714285D02*
X130604299Y-72619047D01*
X130604299Y-72619047D02*
X130604299Y-72428571D01*
X130604299Y-72428571D02*
X130651918Y-72333333D01*
X130651918Y-72333333D02*
X130699537Y-72285714D01*
X130699537Y-72285714D02*
X130794775Y-72238095D01*
X130794775Y-72238095D02*
X130842394Y-72238095D01*
X130842394Y-72238095D02*
X130937632Y-72285714D01*
X130937632Y-72285714D02*
X130985251Y-72333333D01*
X130985251Y-72333333D02*
X131032870Y-72428571D01*
X131032870Y-72428571D02*
X131032870Y-72619047D01*
X131032870Y-72619047D02*
X131080489Y-72714285D01*
X131080489Y-72714285D02*
X131128108Y-72761904D01*
X131128108Y-72761904D02*
X131223346Y-72809523D01*
X131223346Y-72809523D02*
X131413822Y-72809523D01*
X131413822Y-72809523D02*
X131509060Y-72761904D01*
X131509060Y-72761904D02*
X131556680Y-72714285D01*
X131556680Y-72714285D02*
X131604299Y-72619047D01*
X131604299Y-72619047D02*
X131604299Y-72428571D01*
X131604299Y-72428571D02*
X131556680Y-72333333D01*
X131556680Y-72333333D02*
X131509060Y-72285714D01*
X131509060Y-72285714D02*
X131413822Y-72238095D01*
X131413822Y-72238095D02*
X131223346Y-72238095D01*
X131223346Y-72238095D02*
X131128108Y-72285714D01*
X131128108Y-72285714D02*
X131080489Y-72333333D01*
X131080489Y-72333333D02*
X131032870Y-72428571D01*
X122154060Y-101502857D02*
X122201680Y-101550476D01*
X122201680Y-101550476D02*
X122249299Y-101693333D01*
X122249299Y-101693333D02*
X122249299Y-101788571D01*
X122249299Y-101788571D02*
X122201680Y-101931428D01*
X122201680Y-101931428D02*
X122106441Y-102026666D01*
X122106441Y-102026666D02*
X122011203Y-102074285D01*
X122011203Y-102074285D02*
X121820727Y-102121904D01*
X121820727Y-102121904D02*
X121677870Y-102121904D01*
X121677870Y-102121904D02*
X121487394Y-102074285D01*
X121487394Y-102074285D02*
X121392156Y-102026666D01*
X121392156Y-102026666D02*
X121296918Y-101931428D01*
X121296918Y-101931428D02*
X121249299Y-101788571D01*
X121249299Y-101788571D02*
X121249299Y-101693333D01*
X121249299Y-101693333D02*
X121296918Y-101550476D01*
X121296918Y-101550476D02*
X121344537Y-101502857D01*
X122249299Y-100550476D02*
X122249299Y-101121904D01*
X122249299Y-100836190D02*
X121249299Y-100836190D01*
X121249299Y-100836190D02*
X121392156Y-100931428D01*
X121392156Y-100931428D02*
X121487394Y-101026666D01*
X121487394Y-101026666D02*
X121535013Y-101121904D01*
X121344537Y-100169523D02*
X121296918Y-100121904D01*
X121296918Y-100121904D02*
X121249299Y-100026666D01*
X121249299Y-100026666D02*
X121249299Y-99788571D01*
X121249299Y-99788571D02*
X121296918Y-99693333D01*
X121296918Y-99693333D02*
X121344537Y-99645714D01*
X121344537Y-99645714D02*
X121439775Y-99598095D01*
X121439775Y-99598095D02*
X121535013Y-99598095D01*
X121535013Y-99598095D02*
X121677870Y-99645714D01*
X121677870Y-99645714D02*
X122249299Y-100217142D01*
X122249299Y-100217142D02*
X122249299Y-99598095D01*
X120857142Y-84454299D02*
X120523809Y-83978108D01*
X120285714Y-84454299D02*
X120285714Y-83454299D01*
X120285714Y-83454299D02*
X120666666Y-83454299D01*
X120666666Y-83454299D02*
X120761904Y-83501918D01*
X120761904Y-83501918D02*
X120809523Y-83549537D01*
X120809523Y-83549537D02*
X120857142Y-83644775D01*
X120857142Y-83644775D02*
X120857142Y-83787632D01*
X120857142Y-83787632D02*
X120809523Y-83882870D01*
X120809523Y-83882870D02*
X120761904Y-83930489D01*
X120761904Y-83930489D02*
X120666666Y-83978108D01*
X120666666Y-83978108D02*
X120285714Y-83978108D01*
X121809523Y-84454299D02*
X121238095Y-84454299D01*
X121523809Y-84454299D02*
X121523809Y-83454299D01*
X121523809Y-83454299D02*
X121428571Y-83597156D01*
X121428571Y-83597156D02*
X121333333Y-83692394D01*
X121333333Y-83692394D02*
X121238095Y-83740013D01*
X122142857Y-83454299D02*
X122809523Y-83454299D01*
X122809523Y-83454299D02*
X122380952Y-84454299D01*
X134954299Y-83642857D02*
X134478108Y-83976190D01*
X134954299Y-84214285D02*
X133954299Y-84214285D01*
X133954299Y-84214285D02*
X133954299Y-83833333D01*
X133954299Y-83833333D02*
X134001918Y-83738095D01*
X134001918Y-83738095D02*
X134049537Y-83690476D01*
X134049537Y-83690476D02*
X134144775Y-83642857D01*
X134144775Y-83642857D02*
X134287632Y-83642857D01*
X134287632Y-83642857D02*
X134382870Y-83690476D01*
X134382870Y-83690476D02*
X134430489Y-83738095D01*
X134430489Y-83738095D02*
X134478108Y-83833333D01*
X134478108Y-83833333D02*
X134478108Y-84214285D01*
X134049537Y-83261904D02*
X134001918Y-83214285D01*
X134001918Y-83214285D02*
X133954299Y-83119047D01*
X133954299Y-83119047D02*
X133954299Y-82880952D01*
X133954299Y-82880952D02*
X134001918Y-82785714D01*
X134001918Y-82785714D02*
X134049537Y-82738095D01*
X134049537Y-82738095D02*
X134144775Y-82690476D01*
X134144775Y-82690476D02*
X134240013Y-82690476D01*
X134240013Y-82690476D02*
X134382870Y-82738095D01*
X134382870Y-82738095D02*
X134954299Y-83309523D01*
X134954299Y-83309523D02*
X134954299Y-82690476D01*
X133954299Y-82071428D02*
X133954299Y-81976190D01*
X133954299Y-81976190D02*
X134001918Y-81880952D01*
X134001918Y-81880952D02*
X134049537Y-81833333D01*
X134049537Y-81833333D02*
X134144775Y-81785714D01*
X134144775Y-81785714D02*
X134335251Y-81738095D01*
X134335251Y-81738095D02*
X134573346Y-81738095D01*
X134573346Y-81738095D02*
X134763822Y-81785714D01*
X134763822Y-81785714D02*
X134859060Y-81833333D01*
X134859060Y-81833333D02*
X134906680Y-81880952D01*
X134906680Y-81880952D02*
X134954299Y-81976190D01*
X134954299Y-81976190D02*
X134954299Y-82071428D01*
X134954299Y-82071428D02*
X134906680Y-82166666D01*
X134906680Y-82166666D02*
X134859060Y-82214285D01*
X134859060Y-82214285D02*
X134763822Y-82261904D01*
X134763822Y-82261904D02*
X134573346Y-82309523D01*
X134573346Y-82309523D02*
X134335251Y-82309523D01*
X134335251Y-82309523D02*
X134144775Y-82261904D01*
X134144775Y-82261904D02*
X134049537Y-82214285D01*
X134049537Y-82214285D02*
X134001918Y-82166666D01*
X134001918Y-82166666D02*
X133954299Y-82071428D01*
X111857142Y-81104299D02*
X111523809Y-80628108D01*
X111285714Y-81104299D02*
X111285714Y-80104299D01*
X111285714Y-80104299D02*
X111666666Y-80104299D01*
X111666666Y-80104299D02*
X111761904Y-80151918D01*
X111761904Y-80151918D02*
X111809523Y-80199537D01*
X111809523Y-80199537D02*
X111857142Y-80294775D01*
X111857142Y-80294775D02*
X111857142Y-80437632D01*
X111857142Y-80437632D02*
X111809523Y-80532870D01*
X111809523Y-80532870D02*
X111761904Y-80580489D01*
X111761904Y-80580489D02*
X111666666Y-80628108D01*
X111666666Y-80628108D02*
X111285714Y-80628108D01*
X112238095Y-80199537D02*
X112285714Y-80151918D01*
X112285714Y-80151918D02*
X112380952Y-80104299D01*
X112380952Y-80104299D02*
X112619047Y-80104299D01*
X112619047Y-80104299D02*
X112714285Y-80151918D01*
X112714285Y-80151918D02*
X112761904Y-80199537D01*
X112761904Y-80199537D02*
X112809523Y-80294775D01*
X112809523Y-80294775D02*
X112809523Y-80390013D01*
X112809523Y-80390013D02*
X112761904Y-80532870D01*
X112761904Y-80532870D02*
X112190476Y-81104299D01*
X112190476Y-81104299D02*
X112809523Y-81104299D01*
X113190476Y-80199537D02*
X113238095Y-80151918D01*
X113238095Y-80151918D02*
X113333333Y-80104299D01*
X113333333Y-80104299D02*
X113571428Y-80104299D01*
X113571428Y-80104299D02*
X113666666Y-80151918D01*
X113666666Y-80151918D02*
X113714285Y-80199537D01*
X113714285Y-80199537D02*
X113761904Y-80294775D01*
X113761904Y-80294775D02*
X113761904Y-80390013D01*
X113761904Y-80390013D02*
X113714285Y-80532870D01*
X113714285Y-80532870D02*
X113142857Y-81104299D01*
X113142857Y-81104299D02*
X113761904Y-81104299D01*
X128357142Y-88104299D02*
X128023809Y-87628108D01*
X127785714Y-88104299D02*
X127785714Y-87104299D01*
X127785714Y-87104299D02*
X128166666Y-87104299D01*
X128166666Y-87104299D02*
X128261904Y-87151918D01*
X128261904Y-87151918D02*
X128309523Y-87199537D01*
X128309523Y-87199537D02*
X128357142Y-87294775D01*
X128357142Y-87294775D02*
X128357142Y-87437632D01*
X128357142Y-87437632D02*
X128309523Y-87532870D01*
X128309523Y-87532870D02*
X128261904Y-87580489D01*
X128261904Y-87580489D02*
X128166666Y-87628108D01*
X128166666Y-87628108D02*
X127785714Y-87628108D01*
X128738095Y-87199537D02*
X128785714Y-87151918D01*
X128785714Y-87151918D02*
X128880952Y-87104299D01*
X128880952Y-87104299D02*
X129119047Y-87104299D01*
X129119047Y-87104299D02*
X129214285Y-87151918D01*
X129214285Y-87151918D02*
X129261904Y-87199537D01*
X129261904Y-87199537D02*
X129309523Y-87294775D01*
X129309523Y-87294775D02*
X129309523Y-87390013D01*
X129309523Y-87390013D02*
X129261904Y-87532870D01*
X129261904Y-87532870D02*
X128690476Y-88104299D01*
X128690476Y-88104299D02*
X129309523Y-88104299D01*
X130261904Y-88104299D02*
X129690476Y-88104299D01*
X129976190Y-88104299D02*
X129976190Y-87104299D01*
X129976190Y-87104299D02*
X129880952Y-87247156D01*
X129880952Y-87247156D02*
X129785714Y-87342394D01*
X129785714Y-87342394D02*
X129690476Y-87390013D01*
X124738095Y-80454299D02*
X124738095Y-81263822D01*
X124738095Y-81263822D02*
X124785714Y-81359060D01*
X124785714Y-81359060D02*
X124833333Y-81406680D01*
X124833333Y-81406680D02*
X124928571Y-81454299D01*
X124928571Y-81454299D02*
X125119047Y-81454299D01*
X125119047Y-81454299D02*
X125214285Y-81406680D01*
X125214285Y-81406680D02*
X125261904Y-81359060D01*
X125261904Y-81359060D02*
X125309523Y-81263822D01*
X125309523Y-81263822D02*
X125309523Y-80454299D01*
X126214285Y-80787632D02*
X126214285Y-81454299D01*
X125976190Y-80406680D02*
X125738095Y-81120965D01*
X125738095Y-81120965D02*
X126357142Y-81120965D01*
X111454299Y-66548094D02*
X110454299Y-66548094D01*
X110454299Y-66548094D02*
X110454299Y-66309999D01*
X110454299Y-66309999D02*
X110501918Y-66167142D01*
X110501918Y-66167142D02*
X110597156Y-66071904D01*
X110597156Y-66071904D02*
X110692394Y-66024285D01*
X110692394Y-66024285D02*
X110882870Y-65976666D01*
X110882870Y-65976666D02*
X111025727Y-65976666D01*
X111025727Y-65976666D02*
X111216203Y-66024285D01*
X111216203Y-66024285D02*
X111311441Y-66071904D01*
X111311441Y-66071904D02*
X111406680Y-66167142D01*
X111406680Y-66167142D02*
X111454299Y-66309999D01*
X111454299Y-66309999D02*
X111454299Y-66548094D01*
X110454299Y-65119523D02*
X110454299Y-65309999D01*
X110454299Y-65309999D02*
X110501918Y-65405237D01*
X110501918Y-65405237D02*
X110549537Y-65452856D01*
X110549537Y-65452856D02*
X110692394Y-65548094D01*
X110692394Y-65548094D02*
X110882870Y-65595713D01*
X110882870Y-65595713D02*
X111263822Y-65595713D01*
X111263822Y-65595713D02*
X111359060Y-65548094D01*
X111359060Y-65548094D02*
X111406680Y-65500475D01*
X111406680Y-65500475D02*
X111454299Y-65405237D01*
X111454299Y-65405237D02*
X111454299Y-65214761D01*
X111454299Y-65214761D02*
X111406680Y-65119523D01*
X111406680Y-65119523D02*
X111359060Y-65071904D01*
X111359060Y-65071904D02*
X111263822Y-65024285D01*
X111263822Y-65024285D02*
X111025727Y-65024285D01*
X111025727Y-65024285D02*
X110930489Y-65071904D01*
X110930489Y-65071904D02*
X110882870Y-65119523D01*
X110882870Y-65119523D02*
X110835251Y-65214761D01*
X110835251Y-65214761D02*
X110835251Y-65405237D01*
X110835251Y-65405237D02*
X110882870Y-65500475D01*
X110882870Y-65500475D02*
X110930489Y-65548094D01*
X110930489Y-65548094D02*
X111025727Y-65595713D01*
X109454299Y-64261904D02*
X108454299Y-64261904D01*
X109454299Y-63690476D02*
X108882870Y-64119047D01*
X108454299Y-63690476D02*
X109025727Y-64261904D01*
X120857142Y-86359060D02*
X120809523Y-86406680D01*
X120809523Y-86406680D02*
X120666666Y-86454299D01*
X120666666Y-86454299D02*
X120571428Y-86454299D01*
X120571428Y-86454299D02*
X120428571Y-86406680D01*
X120428571Y-86406680D02*
X120333333Y-86311441D01*
X120333333Y-86311441D02*
X120285714Y-86216203D01*
X120285714Y-86216203D02*
X120238095Y-86025727D01*
X120238095Y-86025727D02*
X120238095Y-85882870D01*
X120238095Y-85882870D02*
X120285714Y-85692394D01*
X120285714Y-85692394D02*
X120333333Y-85597156D01*
X120333333Y-85597156D02*
X120428571Y-85501918D01*
X120428571Y-85501918D02*
X120571428Y-85454299D01*
X120571428Y-85454299D02*
X120666666Y-85454299D01*
X120666666Y-85454299D02*
X120809523Y-85501918D01*
X120809523Y-85501918D02*
X120857142Y-85549537D01*
X121809523Y-86454299D02*
X121238095Y-86454299D01*
X121523809Y-86454299D02*
X121523809Y-85454299D01*
X121523809Y-85454299D02*
X121428571Y-85597156D01*
X121428571Y-85597156D02*
X121333333Y-85692394D01*
X121333333Y-85692394D02*
X121238095Y-85740013D01*
X122428571Y-85454299D02*
X122523809Y-85454299D01*
X122523809Y-85454299D02*
X122619047Y-85501918D01*
X122619047Y-85501918D02*
X122666666Y-85549537D01*
X122666666Y-85549537D02*
X122714285Y-85644775D01*
X122714285Y-85644775D02*
X122761904Y-85835251D01*
X122761904Y-85835251D02*
X122761904Y-86073346D01*
X122761904Y-86073346D02*
X122714285Y-86263822D01*
X122714285Y-86263822D02*
X122666666Y-86359060D01*
X122666666Y-86359060D02*
X122619047Y-86406680D01*
X122619047Y-86406680D02*
X122523809Y-86454299D01*
X122523809Y-86454299D02*
X122428571Y-86454299D01*
X122428571Y-86454299D02*
X122333333Y-86406680D01*
X122333333Y-86406680D02*
X122285714Y-86359060D01*
X122285714Y-86359060D02*
X122238095Y-86263822D01*
X122238095Y-86263822D02*
X122190476Y-86073346D01*
X122190476Y-86073346D02*
X122190476Y-85835251D01*
X122190476Y-85835251D02*
X122238095Y-85644775D01*
X122238095Y-85644775D02*
X122285714Y-85549537D01*
X122285714Y-85549537D02*
X122333333Y-85501918D01*
X122333333Y-85501918D02*
X122428571Y-85454299D01*
X116404761Y-75049537D02*
X116309523Y-75001918D01*
X116309523Y-75001918D02*
X116214285Y-74906680D01*
X116214285Y-74906680D02*
X116071428Y-74763822D01*
X116071428Y-74763822D02*
X115976190Y-74716203D01*
X115976190Y-74716203D02*
X115880952Y-74716203D01*
X115928571Y-74954299D02*
X115833333Y-74906680D01*
X115833333Y-74906680D02*
X115738095Y-74811441D01*
X115738095Y-74811441D02*
X115690476Y-74620965D01*
X115690476Y-74620965D02*
X115690476Y-74287632D01*
X115690476Y-74287632D02*
X115738095Y-74097156D01*
X115738095Y-74097156D02*
X115833333Y-74001918D01*
X115833333Y-74001918D02*
X115928571Y-73954299D01*
X115928571Y-73954299D02*
X116119047Y-73954299D01*
X116119047Y-73954299D02*
X116214285Y-74001918D01*
X116214285Y-74001918D02*
X116309523Y-74097156D01*
X116309523Y-74097156D02*
X116357142Y-74287632D01*
X116357142Y-74287632D02*
X116357142Y-74620965D01*
X116357142Y-74620965D02*
X116309523Y-74811441D01*
X116309523Y-74811441D02*
X116214285Y-74906680D01*
X116214285Y-74906680D02*
X116119047Y-74954299D01*
X116119047Y-74954299D02*
X115928571Y-74954299D01*
X117214285Y-73954299D02*
X117023809Y-73954299D01*
X117023809Y-73954299D02*
X116928571Y-74001918D01*
X116928571Y-74001918D02*
X116880952Y-74049537D01*
X116880952Y-74049537D02*
X116785714Y-74192394D01*
X116785714Y-74192394D02*
X116738095Y-74382870D01*
X116738095Y-74382870D02*
X116738095Y-74763822D01*
X116738095Y-74763822D02*
X116785714Y-74859060D01*
X116785714Y-74859060D02*
X116833333Y-74906680D01*
X116833333Y-74906680D02*
X116928571Y-74954299D01*
X116928571Y-74954299D02*
X117119047Y-74954299D01*
X117119047Y-74954299D02*
X117214285Y-74906680D01*
X117214285Y-74906680D02*
X117261904Y-74859060D01*
X117261904Y-74859060D02*
X117309523Y-74763822D01*
X117309523Y-74763822D02*
X117309523Y-74525727D01*
X117309523Y-74525727D02*
X117261904Y-74430489D01*
X117261904Y-74430489D02*
X117214285Y-74382870D01*
X117214285Y-74382870D02*
X117119047Y-74335251D01*
X117119047Y-74335251D02*
X116928571Y-74335251D01*
X116928571Y-74335251D02*
X116833333Y-74382870D01*
X116833333Y-74382870D02*
X116785714Y-74430489D01*
X116785714Y-74430489D02*
X116738095Y-74525727D01*
X127604299Y-74142857D02*
X127128108Y-74476190D01*
X127604299Y-74714285D02*
X126604299Y-74714285D01*
X126604299Y-74714285D02*
X126604299Y-74333333D01*
X126604299Y-74333333D02*
X126651918Y-74238095D01*
X126651918Y-74238095D02*
X126699537Y-74190476D01*
X126699537Y-74190476D02*
X126794775Y-74142857D01*
X126794775Y-74142857D02*
X126937632Y-74142857D01*
X126937632Y-74142857D02*
X127032870Y-74190476D01*
X127032870Y-74190476D02*
X127080489Y-74238095D01*
X127080489Y-74238095D02*
X127128108Y-74333333D01*
X127128108Y-74333333D02*
X127128108Y-74714285D01*
X127604299Y-73190476D02*
X127604299Y-73761904D01*
X127604299Y-73476190D02*
X126604299Y-73476190D01*
X126604299Y-73476190D02*
X126747156Y-73571428D01*
X126747156Y-73571428D02*
X126842394Y-73666666D01*
X126842394Y-73666666D02*
X126890013Y-73761904D01*
X127604299Y-72714285D02*
X127604299Y-72523809D01*
X127604299Y-72523809D02*
X127556680Y-72428571D01*
X127556680Y-72428571D02*
X127509060Y-72380952D01*
X127509060Y-72380952D02*
X127366203Y-72285714D01*
X127366203Y-72285714D02*
X127175727Y-72238095D01*
X127175727Y-72238095D02*
X126794775Y-72238095D01*
X126794775Y-72238095D02*
X126699537Y-72285714D01*
X126699537Y-72285714D02*
X126651918Y-72333333D01*
X126651918Y-72333333D02*
X126604299Y-72428571D01*
X126604299Y-72428571D02*
X126604299Y-72619047D01*
X126604299Y-72619047D02*
X126651918Y-72714285D01*
X126651918Y-72714285D02*
X126699537Y-72761904D01*
X126699537Y-72761904D02*
X126794775Y-72809523D01*
X126794775Y-72809523D02*
X127032870Y-72809523D01*
X127032870Y-72809523D02*
X127128108Y-72761904D01*
X127128108Y-72761904D02*
X127175727Y-72714285D01*
X127175727Y-72714285D02*
X127223346Y-72619047D01*
X127223346Y-72619047D02*
X127223346Y-72428571D01*
X127223346Y-72428571D02*
X127175727Y-72333333D01*
X127175727Y-72333333D02*
X127128108Y-72285714D01*
X127128108Y-72285714D02*
X127032870Y-72238095D01*
X90904761Y-73049537D02*
X90809523Y-73001918D01*
X90809523Y-73001918D02*
X90714285Y-72906680D01*
X90714285Y-72906680D02*
X90571428Y-72763822D01*
X90571428Y-72763822D02*
X90476190Y-72716203D01*
X90476190Y-72716203D02*
X90380952Y-72716203D01*
X90428571Y-72954299D02*
X90333333Y-72906680D01*
X90333333Y-72906680D02*
X90238095Y-72811441D01*
X90238095Y-72811441D02*
X90190476Y-72620965D01*
X90190476Y-72620965D02*
X90190476Y-72287632D01*
X90190476Y-72287632D02*
X90238095Y-72097156D01*
X90238095Y-72097156D02*
X90333333Y-72001918D01*
X90333333Y-72001918D02*
X90428571Y-71954299D01*
X90428571Y-71954299D02*
X90619047Y-71954299D01*
X90619047Y-71954299D02*
X90714285Y-72001918D01*
X90714285Y-72001918D02*
X90809523Y-72097156D01*
X90809523Y-72097156D02*
X90857142Y-72287632D01*
X90857142Y-72287632D02*
X90857142Y-72620965D01*
X90857142Y-72620965D02*
X90809523Y-72811441D01*
X90809523Y-72811441D02*
X90714285Y-72906680D01*
X90714285Y-72906680D02*
X90619047Y-72954299D01*
X90619047Y-72954299D02*
X90428571Y-72954299D01*
X91761904Y-71954299D02*
X91285714Y-71954299D01*
X91285714Y-71954299D02*
X91238095Y-72430489D01*
X91238095Y-72430489D02*
X91285714Y-72382870D01*
X91285714Y-72382870D02*
X91380952Y-72335251D01*
X91380952Y-72335251D02*
X91619047Y-72335251D01*
X91619047Y-72335251D02*
X91714285Y-72382870D01*
X91714285Y-72382870D02*
X91761904Y-72430489D01*
X91761904Y-72430489D02*
X91809523Y-72525727D01*
X91809523Y-72525727D02*
X91809523Y-72763822D01*
X91809523Y-72763822D02*
X91761904Y-72859060D01*
X91761904Y-72859060D02*
X91714285Y-72906680D01*
X91714285Y-72906680D02*
X91619047Y-72954299D01*
X91619047Y-72954299D02*
X91380952Y-72954299D01*
X91380952Y-72954299D02*
X91285714Y-72906680D01*
X91285714Y-72906680D02*
X91238095Y-72859060D01*
X86857142Y-80104299D02*
X86523809Y-79628108D01*
X86285714Y-80104299D02*
X86285714Y-79104299D01*
X86285714Y-79104299D02*
X86666666Y-79104299D01*
X86666666Y-79104299D02*
X86761904Y-79151918D01*
X86761904Y-79151918D02*
X86809523Y-79199537D01*
X86809523Y-79199537D02*
X86857142Y-79294775D01*
X86857142Y-79294775D02*
X86857142Y-79437632D01*
X86857142Y-79437632D02*
X86809523Y-79532870D01*
X86809523Y-79532870D02*
X86761904Y-79580489D01*
X86761904Y-79580489D02*
X86666666Y-79628108D01*
X86666666Y-79628108D02*
X86285714Y-79628108D01*
X87809523Y-80104299D02*
X87238095Y-80104299D01*
X87523809Y-80104299D02*
X87523809Y-79104299D01*
X87523809Y-79104299D02*
X87428571Y-79247156D01*
X87428571Y-79247156D02*
X87333333Y-79342394D01*
X87333333Y-79342394D02*
X87238095Y-79390013D01*
X88666666Y-79104299D02*
X88476190Y-79104299D01*
X88476190Y-79104299D02*
X88380952Y-79151918D01*
X88380952Y-79151918D02*
X88333333Y-79199537D01*
X88333333Y-79199537D02*
X88238095Y-79342394D01*
X88238095Y-79342394D02*
X88190476Y-79532870D01*
X88190476Y-79532870D02*
X88190476Y-79913822D01*
X88190476Y-79913822D02*
X88238095Y-80009060D01*
X88238095Y-80009060D02*
X88285714Y-80056680D01*
X88285714Y-80056680D02*
X88380952Y-80104299D01*
X88380952Y-80104299D02*
X88571428Y-80104299D01*
X88571428Y-80104299D02*
X88666666Y-80056680D01*
X88666666Y-80056680D02*
X88714285Y-80009060D01*
X88714285Y-80009060D02*
X88761904Y-79913822D01*
X88761904Y-79913822D02*
X88761904Y-79675727D01*
X88761904Y-79675727D02*
X88714285Y-79580489D01*
X88714285Y-79580489D02*
X88666666Y-79532870D01*
X88666666Y-79532870D02*
X88571428Y-79485251D01*
X88571428Y-79485251D02*
X88380952Y-79485251D01*
X88380952Y-79485251D02*
X88285714Y-79532870D01*
X88285714Y-79532870D02*
X88238095Y-79580489D01*
X88238095Y-79580489D02*
X88190476Y-79675727D01*
X122764405Y-60311799D02*
X122764405Y-59311799D01*
X123335833Y-60311799D02*
X122907262Y-59740370D01*
X123335833Y-59311799D02*
X122764405Y-59883227D01*
X123716786Y-59407037D02*
X123764405Y-59359418D01*
X123764405Y-59359418D02*
X123859643Y-59311799D01*
X123859643Y-59311799D02*
X124097738Y-59311799D01*
X124097738Y-59311799D02*
X124192976Y-59359418D01*
X124192976Y-59359418D02*
X124240595Y-59407037D01*
X124240595Y-59407037D02*
X124288214Y-59502275D01*
X124288214Y-59502275D02*
X124288214Y-59597513D01*
X124288214Y-59597513D02*
X124240595Y-59740370D01*
X124240595Y-59740370D02*
X123669167Y-60311799D01*
X123669167Y-60311799D02*
X124288214Y-60311799D01*
X43738095Y-110454299D02*
X43738095Y-111263822D01*
X43738095Y-111263822D02*
X43785714Y-111359060D01*
X43785714Y-111359060D02*
X43833333Y-111406680D01*
X43833333Y-111406680D02*
X43928571Y-111454299D01*
X43928571Y-111454299D02*
X44119047Y-111454299D01*
X44119047Y-111454299D02*
X44214285Y-111406680D01*
X44214285Y-111406680D02*
X44261904Y-111359060D01*
X44261904Y-111359060D02*
X44309523Y-111263822D01*
X44309523Y-111263822D02*
X44309523Y-110454299D01*
X45309523Y-111454299D02*
X44738095Y-111454299D01*
X45023809Y-111454299D02*
X45023809Y-110454299D01*
X45023809Y-110454299D02*
X44928571Y-110597156D01*
X44928571Y-110597156D02*
X44833333Y-110692394D01*
X44833333Y-110692394D02*
X44738095Y-110740013D01*
X76204299Y-74142857D02*
X75728108Y-74476190D01*
X76204299Y-74714285D02*
X75204299Y-74714285D01*
X75204299Y-74714285D02*
X75204299Y-74333333D01*
X75204299Y-74333333D02*
X75251918Y-74238095D01*
X75251918Y-74238095D02*
X75299537Y-74190476D01*
X75299537Y-74190476D02*
X75394775Y-74142857D01*
X75394775Y-74142857D02*
X75537632Y-74142857D01*
X75537632Y-74142857D02*
X75632870Y-74190476D01*
X75632870Y-74190476D02*
X75680489Y-74238095D01*
X75680489Y-74238095D02*
X75728108Y-74333333D01*
X75728108Y-74333333D02*
X75728108Y-74714285D01*
X76204299Y-73190476D02*
X76204299Y-73761904D01*
X76204299Y-73476190D02*
X75204299Y-73476190D01*
X75204299Y-73476190D02*
X75347156Y-73571428D01*
X75347156Y-73571428D02*
X75442394Y-73666666D01*
X75442394Y-73666666D02*
X75490013Y-73761904D01*
X75537632Y-72333333D02*
X76204299Y-72333333D01*
X75156680Y-72571428D02*
X75870965Y-72809523D01*
X75870965Y-72809523D02*
X75870965Y-72190476D01*
X42704299Y-83871485D02*
X42228108Y-84204818D01*
X42704299Y-84442913D02*
X41704299Y-84442913D01*
X41704299Y-84442913D02*
X41704299Y-84061961D01*
X41704299Y-84061961D02*
X41751918Y-83966723D01*
X41751918Y-83966723D02*
X41799537Y-83919104D01*
X41799537Y-83919104D02*
X41894775Y-83871485D01*
X41894775Y-83871485D02*
X42037632Y-83871485D01*
X42037632Y-83871485D02*
X42132870Y-83919104D01*
X42132870Y-83919104D02*
X42180489Y-83966723D01*
X42180489Y-83966723D02*
X42228108Y-84061961D01*
X42228108Y-84061961D02*
X42228108Y-84442913D01*
X41799537Y-83490532D02*
X41751918Y-83442913D01*
X41751918Y-83442913D02*
X41704299Y-83347675D01*
X41704299Y-83347675D02*
X41704299Y-83109580D01*
X41704299Y-83109580D02*
X41751918Y-83014342D01*
X41751918Y-83014342D02*
X41799537Y-82966723D01*
X41799537Y-82966723D02*
X41894775Y-82919104D01*
X41894775Y-82919104D02*
X41990013Y-82919104D01*
X41990013Y-82919104D02*
X42132870Y-82966723D01*
X42132870Y-82966723D02*
X42704299Y-83538151D01*
X42704299Y-83538151D02*
X42704299Y-82919104D01*
X41104299Y-73666666D02*
X40628108Y-73999999D01*
X41104299Y-74238094D02*
X40104299Y-74238094D01*
X40104299Y-74238094D02*
X40104299Y-73857142D01*
X40104299Y-73857142D02*
X40151918Y-73761904D01*
X40151918Y-73761904D02*
X40199537Y-73714285D01*
X40199537Y-73714285D02*
X40294775Y-73666666D01*
X40294775Y-73666666D02*
X40437632Y-73666666D01*
X40437632Y-73666666D02*
X40532870Y-73714285D01*
X40532870Y-73714285D02*
X40580489Y-73761904D01*
X40580489Y-73761904D02*
X40628108Y-73857142D01*
X40628108Y-73857142D02*
X40628108Y-74238094D01*
X41104299Y-72714285D02*
X41104299Y-73285713D01*
X41104299Y-72999999D02*
X40104299Y-72999999D01*
X40104299Y-72999999D02*
X40247156Y-73095237D01*
X40247156Y-73095237D02*
X40342394Y-73190475D01*
X40342394Y-73190475D02*
X40390013Y-73285713D01*
X133859060Y-79381605D02*
X133906680Y-79429224D01*
X133906680Y-79429224D02*
X133954299Y-79572081D01*
X133954299Y-79572081D02*
X133954299Y-79667319D01*
X133954299Y-79667319D02*
X133906680Y-79810176D01*
X133906680Y-79810176D02*
X133811441Y-79905414D01*
X133811441Y-79905414D02*
X133716203Y-79953033D01*
X133716203Y-79953033D02*
X133525727Y-80000652D01*
X133525727Y-80000652D02*
X133382870Y-80000652D01*
X133382870Y-80000652D02*
X133192394Y-79953033D01*
X133192394Y-79953033D02*
X133097156Y-79905414D01*
X133097156Y-79905414D02*
X133001918Y-79810176D01*
X133001918Y-79810176D02*
X132954299Y-79667319D01*
X132954299Y-79667319D02*
X132954299Y-79572081D01*
X132954299Y-79572081D02*
X133001918Y-79429224D01*
X133001918Y-79429224D02*
X133049537Y-79381605D01*
X133954299Y-78429224D02*
X133954299Y-79000652D01*
X133954299Y-78714938D02*
X132954299Y-78714938D01*
X132954299Y-78714938D02*
X133097156Y-78810176D01*
X133097156Y-78810176D02*
X133192394Y-78905414D01*
X133192394Y-78905414D02*
X133240013Y-79000652D01*
X133954299Y-77476843D02*
X133954299Y-78048271D01*
X133954299Y-77762557D02*
X132954299Y-77762557D01*
X132954299Y-77762557D02*
X133097156Y-77857795D01*
X133097156Y-77857795D02*
X133192394Y-77953033D01*
X133192394Y-77953033D02*
X133240013Y-78048271D01*
X53109060Y-109166666D02*
X53156680Y-109214285D01*
X53156680Y-109214285D02*
X53204299Y-109357142D01*
X53204299Y-109357142D02*
X53204299Y-109452380D01*
X53204299Y-109452380D02*
X53156680Y-109595237D01*
X53156680Y-109595237D02*
X53061441Y-109690475D01*
X53061441Y-109690475D02*
X52966203Y-109738094D01*
X52966203Y-109738094D02*
X52775727Y-109785713D01*
X52775727Y-109785713D02*
X52632870Y-109785713D01*
X52632870Y-109785713D02*
X52442394Y-109738094D01*
X52442394Y-109738094D02*
X52347156Y-109690475D01*
X52347156Y-109690475D02*
X52251918Y-109595237D01*
X52251918Y-109595237D02*
X52204299Y-109452380D01*
X52204299Y-109452380D02*
X52204299Y-109357142D01*
X52204299Y-109357142D02*
X52251918Y-109214285D01*
X52251918Y-109214285D02*
X52299537Y-109166666D01*
X52204299Y-108261904D02*
X52204299Y-108738094D01*
X52204299Y-108738094D02*
X52680489Y-108785713D01*
X52680489Y-108785713D02*
X52632870Y-108738094D01*
X52632870Y-108738094D02*
X52585251Y-108642856D01*
X52585251Y-108642856D02*
X52585251Y-108404761D01*
X52585251Y-108404761D02*
X52632870Y-108309523D01*
X52632870Y-108309523D02*
X52680489Y-108261904D01*
X52680489Y-108261904D02*
X52775727Y-108214285D01*
X52775727Y-108214285D02*
X53013822Y-108214285D01*
X53013822Y-108214285D02*
X53109060Y-108261904D01*
X53109060Y-108261904D02*
X53156680Y-108309523D01*
X53156680Y-108309523D02*
X53204299Y-108404761D01*
X53204299Y-108404761D02*
X53204299Y-108642856D01*
X53204299Y-108642856D02*
X53156680Y-108738094D01*
X53156680Y-108738094D02*
X53109060Y-108785713D01*
X48083333Y-85359060D02*
X48035714Y-85406680D01*
X48035714Y-85406680D02*
X47892857Y-85454299D01*
X47892857Y-85454299D02*
X47797619Y-85454299D01*
X47797619Y-85454299D02*
X47654762Y-85406680D01*
X47654762Y-85406680D02*
X47559524Y-85311441D01*
X47559524Y-85311441D02*
X47511905Y-85216203D01*
X47511905Y-85216203D02*
X47464286Y-85025727D01*
X47464286Y-85025727D02*
X47464286Y-84882870D01*
X47464286Y-84882870D02*
X47511905Y-84692394D01*
X47511905Y-84692394D02*
X47559524Y-84597156D01*
X47559524Y-84597156D02*
X47654762Y-84501918D01*
X47654762Y-84501918D02*
X47797619Y-84454299D01*
X47797619Y-84454299D02*
X47892857Y-84454299D01*
X47892857Y-84454299D02*
X48035714Y-84501918D01*
X48035714Y-84501918D02*
X48083333Y-84549537D01*
X48940476Y-84787632D02*
X48940476Y-85454299D01*
X48702381Y-84406680D02*
X48464286Y-85120965D01*
X48464286Y-85120965D02*
X49083333Y-85120965D01*
X40539060Y-108916666D02*
X40586680Y-108964285D01*
X40586680Y-108964285D02*
X40634299Y-109107142D01*
X40634299Y-109107142D02*
X40634299Y-109202380D01*
X40634299Y-109202380D02*
X40586680Y-109345237D01*
X40586680Y-109345237D02*
X40491441Y-109440475D01*
X40491441Y-109440475D02*
X40396203Y-109488094D01*
X40396203Y-109488094D02*
X40205727Y-109535713D01*
X40205727Y-109535713D02*
X40062870Y-109535713D01*
X40062870Y-109535713D02*
X39872394Y-109488094D01*
X39872394Y-109488094D02*
X39777156Y-109440475D01*
X39777156Y-109440475D02*
X39681918Y-109345237D01*
X39681918Y-109345237D02*
X39634299Y-109202380D01*
X39634299Y-109202380D02*
X39634299Y-109107142D01*
X39634299Y-109107142D02*
X39681918Y-108964285D01*
X39681918Y-108964285D02*
X39729537Y-108916666D01*
X39634299Y-108583332D02*
X39634299Y-107964285D01*
X39634299Y-107964285D02*
X40015251Y-108297618D01*
X40015251Y-108297618D02*
X40015251Y-108154761D01*
X40015251Y-108154761D02*
X40062870Y-108059523D01*
X40062870Y-108059523D02*
X40110489Y-108011904D01*
X40110489Y-108011904D02*
X40205727Y-107964285D01*
X40205727Y-107964285D02*
X40443822Y-107964285D01*
X40443822Y-107964285D02*
X40539060Y-108011904D01*
X40539060Y-108011904D02*
X40586680Y-108059523D01*
X40586680Y-108059523D02*
X40634299Y-108154761D01*
X40634299Y-108154761D02*
X40634299Y-108440475D01*
X40634299Y-108440475D02*
X40586680Y-108535713D01*
X40586680Y-108535713D02*
X40539060Y-108583332D01*
X42609060Y-85916666D02*
X42656680Y-85964285D01*
X42656680Y-85964285D02*
X42704299Y-86107142D01*
X42704299Y-86107142D02*
X42704299Y-86202380D01*
X42704299Y-86202380D02*
X42656680Y-86345237D01*
X42656680Y-86345237D02*
X42561441Y-86440475D01*
X42561441Y-86440475D02*
X42466203Y-86488094D01*
X42466203Y-86488094D02*
X42275727Y-86535713D01*
X42275727Y-86535713D02*
X42132870Y-86535713D01*
X42132870Y-86535713D02*
X41942394Y-86488094D01*
X41942394Y-86488094D02*
X41847156Y-86440475D01*
X41847156Y-86440475D02*
X41751918Y-86345237D01*
X41751918Y-86345237D02*
X41704299Y-86202380D01*
X41704299Y-86202380D02*
X41704299Y-86107142D01*
X41704299Y-86107142D02*
X41751918Y-85964285D01*
X41751918Y-85964285D02*
X41799537Y-85916666D01*
X41799537Y-85535713D02*
X41751918Y-85488094D01*
X41751918Y-85488094D02*
X41704299Y-85392856D01*
X41704299Y-85392856D02*
X41704299Y-85154761D01*
X41704299Y-85154761D02*
X41751918Y-85059523D01*
X41751918Y-85059523D02*
X41799537Y-85011904D01*
X41799537Y-85011904D02*
X41894775Y-84964285D01*
X41894775Y-84964285D02*
X41990013Y-84964285D01*
X41990013Y-84964285D02*
X42132870Y-85011904D01*
X42132870Y-85011904D02*
X42704299Y-85583332D01*
X42704299Y-85583332D02*
X42704299Y-84964285D01*
X38739285Y-64410489D02*
X38882142Y-64458108D01*
X38882142Y-64458108D02*
X38929761Y-64505727D01*
X38929761Y-64505727D02*
X38977380Y-64600965D01*
X38977380Y-64600965D02*
X38977380Y-64743822D01*
X38977380Y-64743822D02*
X38929761Y-64839060D01*
X38929761Y-64839060D02*
X38882142Y-64886680D01*
X38882142Y-64886680D02*
X38786904Y-64934299D01*
X38786904Y-64934299D02*
X38405952Y-64934299D01*
X38405952Y-64934299D02*
X38405952Y-63934299D01*
X38405952Y-63934299D02*
X38739285Y-63934299D01*
X38739285Y-63934299D02*
X38834523Y-63981918D01*
X38834523Y-63981918D02*
X38882142Y-64029537D01*
X38882142Y-64029537D02*
X38929761Y-64124775D01*
X38929761Y-64124775D02*
X38929761Y-64220013D01*
X38929761Y-64220013D02*
X38882142Y-64315251D01*
X38882142Y-64315251D02*
X38834523Y-64362870D01*
X38834523Y-64362870D02*
X38739285Y-64410489D01*
X38739285Y-64410489D02*
X38405952Y-64410489D01*
X39263095Y-63934299D02*
X39834523Y-63934299D01*
X39548809Y-64934299D02*
X39548809Y-63934299D01*
X40691666Y-64934299D02*
X40120238Y-64934299D01*
X40405952Y-64934299D02*
X40405952Y-63934299D01*
X40405952Y-63934299D02*
X40310714Y-64077156D01*
X40310714Y-64077156D02*
X40215476Y-64172394D01*
X40215476Y-64172394D02*
X40120238Y-64220013D01*
X50583333Y-59959060D02*
X50535714Y-60006680D01*
X50535714Y-60006680D02*
X50392857Y-60054299D01*
X50392857Y-60054299D02*
X50297619Y-60054299D01*
X50297619Y-60054299D02*
X50154762Y-60006680D01*
X50154762Y-60006680D02*
X50059524Y-59911441D01*
X50059524Y-59911441D02*
X50011905Y-59816203D01*
X50011905Y-59816203D02*
X49964286Y-59625727D01*
X49964286Y-59625727D02*
X49964286Y-59482870D01*
X49964286Y-59482870D02*
X50011905Y-59292394D01*
X50011905Y-59292394D02*
X50059524Y-59197156D01*
X50059524Y-59197156D02*
X50154762Y-59101918D01*
X50154762Y-59101918D02*
X50297619Y-59054299D01*
X50297619Y-59054299D02*
X50392857Y-59054299D01*
X50392857Y-59054299D02*
X50535714Y-59101918D01*
X50535714Y-59101918D02*
X50583333Y-59149537D01*
X51440476Y-59054299D02*
X51250000Y-59054299D01*
X51250000Y-59054299D02*
X51154762Y-59101918D01*
X51154762Y-59101918D02*
X51107143Y-59149537D01*
X51107143Y-59149537D02*
X51011905Y-59292394D01*
X51011905Y-59292394D02*
X50964286Y-59482870D01*
X50964286Y-59482870D02*
X50964286Y-59863822D01*
X50964286Y-59863822D02*
X51011905Y-59959060D01*
X51011905Y-59959060D02*
X51059524Y-60006680D01*
X51059524Y-60006680D02*
X51154762Y-60054299D01*
X51154762Y-60054299D02*
X51345238Y-60054299D01*
X51345238Y-60054299D02*
X51440476Y-60006680D01*
X51440476Y-60006680D02*
X51488095Y-59959060D01*
X51488095Y-59959060D02*
X51535714Y-59863822D01*
X51535714Y-59863822D02*
X51535714Y-59625727D01*
X51535714Y-59625727D02*
X51488095Y-59530489D01*
X51488095Y-59530489D02*
X51440476Y-59482870D01*
X51440476Y-59482870D02*
X51345238Y-59435251D01*
X51345238Y-59435251D02*
X51154762Y-59435251D01*
X51154762Y-59435251D02*
X51059524Y-59482870D01*
X51059524Y-59482870D02*
X51011905Y-59530489D01*
X51011905Y-59530489D02*
X50964286Y-59625727D01*
X66954299Y-65666666D02*
X66954299Y-66142856D01*
X66954299Y-66142856D02*
X65954299Y-66142856D01*
X66954299Y-64809523D02*
X66954299Y-65380951D01*
X66954299Y-65095237D02*
X65954299Y-65095237D01*
X65954299Y-65095237D02*
X66097156Y-65190475D01*
X66097156Y-65190475D02*
X66192394Y-65285713D01*
X66192394Y-65285713D02*
X66240013Y-65380951D01*
X123416666Y-106704299D02*
X123416666Y-107418584D01*
X123416666Y-107418584D02*
X123369047Y-107561441D01*
X123369047Y-107561441D02*
X123273809Y-107656680D01*
X123273809Y-107656680D02*
X123130952Y-107704299D01*
X123130952Y-107704299D02*
X123035714Y-107704299D01*
X123797619Y-106704299D02*
X124416666Y-106704299D01*
X124416666Y-106704299D02*
X124083333Y-107085251D01*
X124083333Y-107085251D02*
X124226190Y-107085251D01*
X124226190Y-107085251D02*
X124321428Y-107132870D01*
X124321428Y-107132870D02*
X124369047Y-107180489D01*
X124369047Y-107180489D02*
X124416666Y-107275727D01*
X124416666Y-107275727D02*
X124416666Y-107513822D01*
X124416666Y-107513822D02*
X124369047Y-107609060D01*
X124369047Y-107609060D02*
X124321428Y-107656680D01*
X124321428Y-107656680D02*
X124226190Y-107704299D01*
X124226190Y-107704299D02*
X123940476Y-107704299D01*
X123940476Y-107704299D02*
X123845238Y-107656680D01*
X123845238Y-107656680D02*
X123797619Y-107609060D01*
X47704299Y-96511904D02*
X48513822Y-96511904D01*
X48513822Y-96511904D02*
X48609060Y-96464285D01*
X48609060Y-96464285D02*
X48656680Y-96416666D01*
X48656680Y-96416666D02*
X48704299Y-96321428D01*
X48704299Y-96321428D02*
X48704299Y-96130952D01*
X48704299Y-96130952D02*
X48656680Y-96035714D01*
X48656680Y-96035714D02*
X48609060Y-95988095D01*
X48609060Y-95988095D02*
X48513822Y-95940476D01*
X48513822Y-95940476D02*
X47704299Y-95940476D01*
X47704299Y-95559523D02*
X47704299Y-94940476D01*
X47704299Y-94940476D02*
X48085251Y-95273809D01*
X48085251Y-95273809D02*
X48085251Y-95130952D01*
X48085251Y-95130952D02*
X48132870Y-95035714D01*
X48132870Y-95035714D02*
X48180489Y-94988095D01*
X48180489Y-94988095D02*
X48275727Y-94940476D01*
X48275727Y-94940476D02*
X48513822Y-94940476D01*
X48513822Y-94940476D02*
X48609060Y-94988095D01*
X48609060Y-94988095D02*
X48656680Y-95035714D01*
X48656680Y-95035714D02*
X48704299Y-95130952D01*
X48704299Y-95130952D02*
X48704299Y-95416666D01*
X48704299Y-95416666D02*
X48656680Y-95511904D01*
X48656680Y-95511904D02*
X48609060Y-95559523D01*
X70166666Y-87144299D02*
X70166666Y-87858584D01*
X70166666Y-87858584D02*
X70119047Y-88001441D01*
X70119047Y-88001441D02*
X70023809Y-88096680D01*
X70023809Y-88096680D02*
X69880952Y-88144299D01*
X69880952Y-88144299D02*
X69785714Y-88144299D01*
X71166666Y-88144299D02*
X70595238Y-88144299D01*
X70880952Y-88144299D02*
X70880952Y-87144299D01*
X70880952Y-87144299D02*
X70785714Y-87287156D01*
X70785714Y-87287156D02*
X70690476Y-87382394D01*
X70690476Y-87382394D02*
X70595238Y-87430013D01*
%TO.C,C9*%
X75780000Y-65130000D02*
X83020000Y-65130000D01*
X75780000Y-67870000D02*
X75780000Y-65130000D01*
X83020000Y-65130000D02*
X83020000Y-67870000D01*
X83020000Y-67870000D02*
X75780000Y-67870000D01*
%TO.C,TP1*%
X82000000Y-69460000D02*
X79000000Y-69460000D01*
X82000000Y-69460000D02*
X82000000Y-77560000D01*
X79000000Y-77560000D02*
X79000000Y-69460000D01*
X79000000Y-77560000D02*
X82000000Y-77560000D01*
%TO.C,R23*%
X126727064Y-89735000D02*
X126272936Y-89735000D01*
X126727064Y-88265000D02*
X126272936Y-88265000D01*
%TO.C,K1*%
X87600000Y-71120000D02*
X87600000Y-69620000D01*
X87700000Y-60620000D02*
X106300000Y-60620000D01*
X87700000Y-71020000D02*
X87700000Y-60620000D01*
X88700000Y-65520000D02*
X88700000Y-66220000D01*
X88700000Y-66220000D02*
X89900000Y-66220000D01*
X89300000Y-65520000D02*
X89300000Y-64420000D01*
X89300000Y-66220000D02*
X89300000Y-67320000D01*
X89300000Y-71120000D02*
X87600000Y-71120000D01*
X89500000Y-66220000D02*
X89100000Y-65520000D01*
X89900000Y-65520000D02*
X88700000Y-65520000D01*
X89900000Y-66220000D02*
X89900000Y-65520000D01*
X105700000Y-60620000D02*
X106300000Y-61220000D01*
X106100000Y-60620000D02*
X106300000Y-60820000D01*
X106300000Y-60620000D02*
X106300000Y-61220000D01*
X106300000Y-60920000D02*
X105900000Y-60620000D01*
X106300000Y-61020000D02*
X105900000Y-60620000D01*
X106300000Y-61120000D02*
X105800000Y-60620000D01*
X106300000Y-62820000D02*
X106300000Y-68820000D01*
X106300000Y-70420000D02*
X106300000Y-71020000D01*
X106300000Y-71020000D02*
X87700000Y-71020000D01*
%TO.C,D5*%
X104060000Y-75236000D02*
X104060000Y-75080000D01*
X104060000Y-72920000D02*
X104060000Y-72764000D01*
X104060000Y-75235516D02*
G75*
G02*
X100828563Y-75080000I-1560000J1235516D01*
G01*
X103540961Y-75080000D02*
G75*
G02*
X101459039Y-75080000I-1040961J1080000D01*
G01*
X101459039Y-72920000D02*
G75*
G02*
X103540961Y-72920000I1040961J-1080000D01*
G01*
X100828563Y-72920000D02*
G75*
G02*
X104060000Y-72764484I1671437J-1080000D01*
G01*
%TO.C,D4*%
X87120000Y-63880000D02*
X84880000Y-63880000D01*
X84880000Y-68120000D01*
X87120000Y-68120000D01*
X87120000Y-63880000D01*
X86000000Y-68770000D02*
X86000000Y-68120000D01*
X87120000Y-64720000D02*
X84880000Y-64720000D01*
X87120000Y-64600000D02*
X84880000Y-64600000D01*
X87120000Y-64480000D02*
X84880000Y-64480000D01*
X86000000Y-63230000D02*
X86000000Y-63880000D01*
%TO.C,R15*%
X106735000Y-73772936D02*
X106735000Y-74227064D01*
X105265000Y-73772936D02*
X105265000Y-74227064D01*
%TO.C,C8*%
X70740113Y-61025000D02*
X71240113Y-61025000D01*
X70990113Y-60775000D02*
X70990113Y-61275000D01*
X73544888Y-59920000D02*
X73544888Y-65080000D01*
X73584888Y-59920000D02*
X73584888Y-65080000D01*
X73624888Y-59921000D02*
X73624888Y-65079000D01*
X73664888Y-59923000D02*
X73664888Y-65077000D01*
X73704888Y-59925000D02*
X73704888Y-65075000D01*
X73744888Y-59928000D02*
X73744888Y-65072000D01*
X73784888Y-59931000D02*
X73784888Y-61460000D01*
X73784888Y-63540000D02*
X73784888Y-65069000D01*
X73824888Y-59935000D02*
X73824888Y-61460000D01*
X73824888Y-63540000D02*
X73824888Y-65065000D01*
X73864888Y-59940000D02*
X73864888Y-61460000D01*
X73864888Y-63540000D02*
X73864888Y-65060000D01*
X73904888Y-59945000D02*
X73904888Y-61460000D01*
X73904888Y-63540000D02*
X73904888Y-65055000D01*
X73944888Y-59951000D02*
X73944888Y-61460000D01*
X73944888Y-63540000D02*
X73944888Y-65049000D01*
X73984888Y-59957000D02*
X73984888Y-61460000D01*
X73984888Y-63540000D02*
X73984888Y-65043000D01*
X74024888Y-59964000D02*
X74024888Y-61460000D01*
X74024888Y-63540000D02*
X74024888Y-65036000D01*
X74064888Y-59972000D02*
X74064888Y-61460000D01*
X74064888Y-63540000D02*
X74064888Y-65028000D01*
X74104888Y-59981000D02*
X74104888Y-61460000D01*
X74104888Y-63540000D02*
X74104888Y-65019000D01*
X74144888Y-59990000D02*
X74144888Y-61460000D01*
X74144888Y-63540000D02*
X74144888Y-65010000D01*
X74184888Y-59999000D02*
X74184888Y-61460000D01*
X74184888Y-63540000D02*
X74184888Y-65001000D01*
X74224888Y-60010000D02*
X74224888Y-61460000D01*
X74224888Y-63540000D02*
X74224888Y-64990000D01*
X74264888Y-60021000D02*
X74264888Y-61460000D01*
X74264888Y-63540000D02*
X74264888Y-64979000D01*
X74304888Y-60033000D02*
X74304888Y-61460000D01*
X74304888Y-63540000D02*
X74304888Y-64967000D01*
X74344888Y-60045000D02*
X74344888Y-61460000D01*
X74344888Y-63540000D02*
X74344888Y-64955000D01*
X74384888Y-60058000D02*
X74384888Y-61460000D01*
X74384888Y-63540000D02*
X74384888Y-64942000D01*
X74424888Y-60072000D02*
X74424888Y-61460000D01*
X74424888Y-63540000D02*
X74424888Y-64928000D01*
X74464888Y-60087000D02*
X74464888Y-61460000D01*
X74464888Y-63540000D02*
X74464888Y-64913000D01*
X74504888Y-60102000D02*
X74504888Y-61460000D01*
X74504888Y-63540000D02*
X74504888Y-64898000D01*
X74544888Y-60118000D02*
X74544888Y-61460000D01*
X74544888Y-63540000D02*
X74544888Y-64882000D01*
X74584888Y-60135000D02*
X74584888Y-61460000D01*
X74584888Y-63540000D02*
X74584888Y-64865000D01*
X74624888Y-60153000D02*
X74624888Y-61460000D01*
X74624888Y-63540000D02*
X74624888Y-64847000D01*
X74664888Y-60171000D02*
X74664888Y-61460000D01*
X74664888Y-63540000D02*
X74664888Y-64829000D01*
X74704888Y-60191000D02*
X74704888Y-61460000D01*
X74704888Y-63540000D02*
X74704888Y-64809000D01*
X74744888Y-60211000D02*
X74744888Y-61460000D01*
X74744888Y-63540000D02*
X74744888Y-64789000D01*
X74784888Y-60232000D02*
X74784888Y-61460000D01*
X74784888Y-63540000D02*
X74784888Y-64768000D01*
X74824888Y-60254000D02*
X74824888Y-61460000D01*
X74824888Y-63540000D02*
X74824888Y-64746000D01*
X74864888Y-60277000D02*
X74864888Y-61460000D01*
X74864888Y-63540000D02*
X74864888Y-64723000D01*
X74904888Y-60301000D02*
X74904888Y-61460000D01*
X74904888Y-63540000D02*
X74904888Y-64699000D01*
X74944888Y-60325000D02*
X74944888Y-61460000D01*
X74944888Y-63540000D02*
X74944888Y-64675000D01*
X74984888Y-60351000D02*
X74984888Y-61460000D01*
X74984888Y-63540000D02*
X74984888Y-64649000D01*
X75024888Y-60378000D02*
X75024888Y-61460000D01*
X75024888Y-63540000D02*
X75024888Y-64622000D01*
X75064888Y-60406000D02*
X75064888Y-61460000D01*
X75064888Y-63540000D02*
X75064888Y-64594000D01*
X75104888Y-60435000D02*
X75104888Y-61460000D01*
X75104888Y-63540000D02*
X75104888Y-64565000D01*
X75144888Y-60465000D02*
X75144888Y-61460000D01*
X75144888Y-63540000D02*
X75144888Y-64535000D01*
X75184888Y-60497000D02*
X75184888Y-61460000D01*
X75184888Y-63540000D02*
X75184888Y-64503000D01*
X75224888Y-60530000D02*
X75224888Y-61460000D01*
X75224888Y-63540000D02*
X75224888Y-64470000D01*
X75264888Y-60564000D02*
X75264888Y-61460000D01*
X75264888Y-63540000D02*
X75264888Y-64436000D01*
X75304888Y-60599000D02*
X75304888Y-61460000D01*
X75304888Y-63540000D02*
X75304888Y-64401000D01*
X75344888Y-60636000D02*
X75344888Y-61460000D01*
X75344888Y-63540000D02*
X75344888Y-64364000D01*
X75384888Y-60675000D02*
X75384888Y-61460000D01*
X75384888Y-63540000D02*
X75384888Y-64325000D01*
X75424888Y-60715000D02*
X75424888Y-61460000D01*
X75424888Y-63540000D02*
X75424888Y-64285000D01*
X75464888Y-60757000D02*
X75464888Y-61460000D01*
X75464888Y-63540000D02*
X75464888Y-64243000D01*
X75504888Y-60801000D02*
X75504888Y-61460000D01*
X75504888Y-63540000D02*
X75504888Y-64199000D01*
X75544888Y-60848000D02*
X75544888Y-61460000D01*
X75544888Y-63540000D02*
X75544888Y-64152000D01*
X75584888Y-60896000D02*
X75584888Y-61460000D01*
X75584888Y-63540000D02*
X75584888Y-64104000D01*
X75624888Y-60947000D02*
X75624888Y-61460000D01*
X75624888Y-63540000D02*
X75624888Y-64053000D01*
X75664888Y-61001000D02*
X75664888Y-61460000D01*
X75664888Y-63540000D02*
X75664888Y-63999000D01*
X75704888Y-61057000D02*
X75704888Y-61460000D01*
X75704888Y-63540000D02*
X75704888Y-63943000D01*
X75744888Y-61117000D02*
X75744888Y-61460000D01*
X75744888Y-63540000D02*
X75744888Y-63883000D01*
X75784888Y-61181000D02*
X75784888Y-61460000D01*
X75784888Y-63540000D02*
X75784888Y-63819000D01*
X75824888Y-61249000D02*
X75824888Y-61460000D01*
X75824888Y-63540000D02*
X75824888Y-63751000D01*
X75864888Y-61323000D02*
X75864888Y-63677000D01*
X75904888Y-61402000D02*
X75904888Y-63598000D01*
X75944888Y-61489000D02*
X75944888Y-63511000D01*
X75984888Y-61586000D02*
X75984888Y-63414000D01*
X76024888Y-61695000D02*
X76024888Y-63305000D01*
X76064888Y-61823000D02*
X76064888Y-63177000D01*
X76104888Y-61983000D02*
X76104888Y-63017000D01*
X76144888Y-62217000D02*
X76144888Y-62783000D01*
X76164888Y-62500000D02*
G75*
G02*
X70924888Y-62500000I-2620000J0D01*
G01*
X70924888Y-62500000D02*
G75*
G02*
X76164888Y-62500000I2620000J0D01*
G01*
%TO.C,D2*%
X43360000Y-80000000D02*
X43360000Y-78000000D01*
X43360000Y-80000000D02*
X39350000Y-80000000D01*
X43360000Y-78000000D02*
X39350000Y-78000000D01*
%TO.C,D1*%
X43360000Y-82500000D02*
X43360000Y-80500000D01*
X43360000Y-82500000D02*
X39350000Y-82500000D01*
X43360000Y-80500000D02*
X39350000Y-80500000D01*
%TO.C,U2*%
X58000000Y-61440000D02*
X56050000Y-61440000D01*
X58000000Y-61440000D02*
X59950000Y-61440000D01*
X58000000Y-66560000D02*
X56050000Y-66560000D01*
X58000000Y-66560000D02*
X59950000Y-66560000D01*
X55300000Y-61535000D02*
X55060000Y-61205000D01*
X55540000Y-61205000D01*
X55300000Y-61535000D01*
G36*
X55300000Y-61535000D02*
G01*
X55060000Y-61205000D01*
X55540000Y-61205000D01*
X55300000Y-61535000D01*
G37*
%TO.C,F1*%
X43738748Y-67710000D02*
X44261252Y-67710000D01*
X43738748Y-66290000D02*
X44261252Y-66290000D01*
%TO.C,R3*%
X41727064Y-75765000D02*
X41272936Y-75765000D01*
X41727064Y-77235000D02*
X41272936Y-77235000D01*
%TO.C,R4*%
X44522936Y-84735000D02*
X44977064Y-84735000D01*
X44522936Y-83265000D02*
X44977064Y-83265000D01*
%TO.C,C7*%
X54238748Y-68735000D02*
X54761252Y-68735000D01*
X54238748Y-67265000D02*
X54761252Y-67265000D01*
%TO.C,R8*%
X60227064Y-69265000D02*
X59772936Y-69265000D01*
X60227064Y-70735000D02*
X59772936Y-70735000D01*
%TO.C,D3*%
X75360000Y-68000000D02*
X71350000Y-68000000D01*
X75360000Y-70000000D02*
X71350000Y-70000000D01*
X75360000Y-70000000D02*
X75360000Y-68000000D01*
%TO.C,R10*%
X57765000Y-84772936D02*
X57765000Y-85227064D01*
X59235000Y-84772936D02*
X59235000Y-85227064D01*
%TO.C,Q4*%
X61540000Y-82225000D02*
X61210000Y-82465000D01*
X61210000Y-81985000D01*
X61540000Y-82225000D01*
G36*
X61540000Y-82225000D02*
G01*
X61210000Y-82465000D01*
X61210000Y-81985000D01*
X61540000Y-82225000D01*
G37*
X64610000Y-81062500D02*
X64610000Y-80412500D01*
X64610000Y-81062500D02*
X64610000Y-81712500D01*
X61490000Y-81062500D02*
X61490000Y-80412500D01*
X61490000Y-81062500D02*
X61490000Y-81712500D01*
%TO.C,R9*%
X55265000Y-76772936D02*
X55265000Y-77227064D01*
X56735000Y-76772936D02*
X56735000Y-77227064D01*
%TO.C,Q3*%
X57990000Y-82162500D02*
X57660000Y-82402500D01*
X57660000Y-81922500D01*
X57990000Y-82162500D01*
G36*
X57990000Y-82162500D02*
G01*
X57660000Y-82402500D01*
X57660000Y-81922500D01*
X57990000Y-82162500D01*
G37*
X61060000Y-81000000D02*
X61060000Y-80350000D01*
X61060000Y-81000000D02*
X61060000Y-81650000D01*
X57940000Y-81000000D02*
X57940000Y-80350000D01*
X57940000Y-81000000D02*
X57940000Y-81650000D01*
%TO.C,R5*%
X51565000Y-84772936D02*
X51565000Y-85227064D01*
X53035000Y-84772936D02*
X53035000Y-85227064D01*
%TO.C,R6*%
X51765000Y-76772936D02*
X51765000Y-77227064D01*
X53235000Y-76772936D02*
X53235000Y-77227064D01*
%TO.C,R7*%
X54665000Y-84772936D02*
X54665000Y-85227064D01*
X56135000Y-84772936D02*
X56135000Y-85227064D01*
%TO.C,Q1*%
X50990000Y-82162500D02*
X50660000Y-82402500D01*
X50660000Y-81922500D01*
X50990000Y-82162500D01*
G36*
X50990000Y-82162500D02*
G01*
X50660000Y-82402500D01*
X50660000Y-81922500D01*
X50990000Y-82162500D01*
G37*
X54060000Y-81000000D02*
X54060000Y-80350000D01*
X54060000Y-81000000D02*
X54060000Y-81650000D01*
X50940000Y-81000000D02*
X50940000Y-80350000D01*
X50940000Y-81000000D02*
X50940000Y-81650000D01*
%TO.C,R11*%
X58765000Y-76772936D02*
X58765000Y-77227064D01*
X60235000Y-76772936D02*
X60235000Y-77227064D01*
%TO.C,R12*%
X60865000Y-84772936D02*
X60865000Y-85227064D01*
X62335000Y-84772936D02*
X62335000Y-85227064D01*
%TO.C,R13*%
X62265000Y-76772936D02*
X62265000Y-77227064D01*
X63735000Y-76772936D02*
X63735000Y-77227064D01*
%TO.C,Q2*%
X54490000Y-82162500D02*
X54160000Y-82402500D01*
X54160000Y-81922500D01*
X54490000Y-82162500D01*
G36*
X54490000Y-82162500D02*
G01*
X54160000Y-82402500D01*
X54160000Y-81922500D01*
X54490000Y-82162500D01*
G37*
X57560000Y-81000000D02*
X57560000Y-80350000D01*
X57560000Y-81000000D02*
X57560000Y-81650000D01*
X54440000Y-81000000D02*
X54440000Y-80350000D01*
X54440000Y-81000000D02*
X54440000Y-81650000D01*
%TO.C,J2*%
X135805000Y-94590000D02*
X135805000Y-102270000D01*
X135805000Y-91990000D02*
X135805000Y-93320000D01*
X134475000Y-91990000D02*
X135805000Y-91990000D01*
X133145000Y-102270000D02*
X135805000Y-102270000D01*
X133145000Y-94590000D02*
X135805000Y-94590000D01*
X133145000Y-94590000D02*
X133145000Y-102270000D01*
%TO.C,C1*%
X132210000Y-94621252D02*
X132210000Y-94098748D01*
X130740000Y-94621252D02*
X130740000Y-94098748D01*
%TO.C,D7*%
X128000000Y-80860000D02*
X130000000Y-80860000D01*
X128000000Y-80860000D02*
X128000000Y-76850000D01*
X130000000Y-80860000D02*
X130000000Y-76850000D01*
%TO.C,R18*%
X128765000Y-73272936D02*
X128765000Y-73727064D01*
X130235000Y-73272936D02*
X130235000Y-73727064D01*
%TO.C,C12*%
X124210000Y-101121252D02*
X124210000Y-100598748D01*
X122740000Y-101121252D02*
X122740000Y-100598748D01*
%TO.C,R17*%
X124772936Y-84735000D02*
X125227064Y-84735000D01*
X124772936Y-83265000D02*
X125227064Y-83265000D01*
%TO.C,R20*%
X131765000Y-83227064D02*
X131765000Y-82772936D01*
X133235000Y-83227064D02*
X133235000Y-82772936D01*
%TO.C,R22*%
X112727064Y-78265000D02*
X112272936Y-78265000D01*
X112727064Y-79735000D02*
X112272936Y-79735000D01*
%TO.C,R21*%
X129227064Y-85265000D02*
X128772936Y-85265000D01*
X129227064Y-86735000D02*
X128772936Y-86735000D01*
%TO.C,U4*%
X127800000Y-81540000D02*
X127560000Y-81210000D01*
X128040000Y-81210000D01*
X127800000Y-81540000D01*
G36*
X127800000Y-81540000D02*
G01*
X127560000Y-81210000D01*
X128040000Y-81210000D01*
X127800000Y-81540000D01*
G37*
X129100000Y-84610000D02*
X129900000Y-84610000D01*
X129100000Y-84610000D02*
X128300000Y-84610000D01*
X129100000Y-81490000D02*
X129900000Y-81490000D01*
X129100000Y-81490000D02*
X128300000Y-81490000D01*
%TO.C,D6*%
X111000000Y-63040000D02*
X111000000Y-63690000D01*
X112120000Y-64290000D02*
X109880000Y-64290000D01*
X112120000Y-64410000D02*
X109880000Y-64410000D01*
X112120000Y-64530000D02*
X109880000Y-64530000D01*
X111000000Y-68580000D02*
X111000000Y-67930000D01*
X112120000Y-63690000D02*
X109880000Y-63690000D01*
X109880000Y-67930000D01*
X112120000Y-67930000D01*
X112120000Y-63690000D01*
%TO.C,C10*%
X124701248Y-85265000D02*
X125223752Y-85265000D01*
X124701248Y-86735000D02*
X125223752Y-86735000D01*
%TO.C,Q6*%
X112730000Y-71900000D02*
G75*
G02*
X114568478Y-76338478I0J-2600000D01*
G01*
X110891522Y-76338478D02*
G75*
G02*
X112730000Y-71899999I1838478J1838478D01*
G01*
X110930000Y-76350000D02*
X114530000Y-76350000D01*
%TO.C,R19*%
X124765000Y-73272936D02*
X124765000Y-73727064D01*
X126235000Y-73272936D02*
X126235000Y-73727064D01*
%TO.C,Q5*%
X85700000Y-76350000D02*
X89300000Y-76350000D01*
X85661522Y-76338478D02*
G75*
G02*
X87500000Y-71899999I1838478J1838478D01*
G01*
X87500000Y-71900000D02*
G75*
G02*
X89338478Y-76338478I0J-2600000D01*
G01*
%TO.C,R16*%
X87727064Y-78735000D02*
X87272936Y-78735000D01*
X87727064Y-77265000D02*
X87272936Y-77265000D01*
%TO.C,K2*%
X112502500Y-71257500D02*
X112502500Y-69757500D01*
X112602500Y-60757500D02*
X131202500Y-60757500D01*
X112602500Y-71157500D02*
X112602500Y-60757500D01*
X113602500Y-65657500D02*
X113602500Y-66357500D01*
X113602500Y-66357500D02*
X114802500Y-66357500D01*
X114202500Y-65657500D02*
X114202500Y-64557500D01*
X114202500Y-66357500D02*
X114202500Y-67457500D01*
X114202500Y-71257500D02*
X112502500Y-71257500D01*
X114402500Y-66357500D02*
X114002500Y-65657500D01*
X114802500Y-65657500D02*
X113602500Y-65657500D01*
X114802500Y-66357500D02*
X114802500Y-65657500D01*
X130602500Y-60757500D02*
X131202500Y-61357500D01*
X131002500Y-60757500D02*
X131202500Y-60957500D01*
X131202500Y-60757500D02*
X131202500Y-61357500D01*
X131202500Y-61057500D02*
X130802500Y-60757500D01*
X131202500Y-61157500D02*
X130802500Y-60757500D01*
X131202500Y-61257500D02*
X130702500Y-60757500D01*
X131202500Y-62957500D02*
X131202500Y-68957500D01*
X131202500Y-70557500D02*
X131202500Y-71157500D01*
X131202500Y-71157500D02*
X112602500Y-71157500D01*
%TO.C,U1*%
X43150000Y-106590000D02*
X46910000Y-106590000D01*
X43150000Y-113410000D02*
X46910000Y-113410000D01*
X46910000Y-106590000D02*
X46910000Y-107850000D01*
X46910000Y-113410000D02*
X46910000Y-112150000D01*
X41870000Y-106690000D02*
X41630000Y-106360000D01*
X42110000Y-106360000D01*
X41870000Y-106690000D01*
G36*
X41870000Y-106690000D02*
G01*
X41630000Y-106360000D01*
X42110000Y-106360000D01*
X41870000Y-106690000D01*
G37*
%TO.C,R14*%
X78235000Y-73272936D02*
X78235000Y-73727064D01*
X76765000Y-73272936D02*
X76765000Y-73727064D01*
%TO.C,R2*%
X39522936Y-83015000D02*
X39977064Y-83015000D01*
X39522936Y-84485000D02*
X39977064Y-84485000D01*
%TO.C,R1*%
X39735000Y-73272936D02*
X39735000Y-73727064D01*
X38265000Y-73272936D02*
X38265000Y-73727064D01*
%TO.C,C11*%
X130765000Y-79261252D02*
X130765000Y-78738748D01*
X132235000Y-79261252D02*
X132235000Y-78738748D01*
%TO.C,C5*%
X51735000Y-107738748D02*
X51735000Y-108261252D01*
X50265000Y-107738748D02*
X50265000Y-108261252D01*
%TO.C,C4*%
X44488748Y-85265000D02*
X45011252Y-85265000D01*
X44488748Y-86735000D02*
X45011252Y-86735000D01*
%TO.C,C3*%
X39235000Y-107738748D02*
X39235000Y-108261252D01*
X37765000Y-107738748D02*
X37765000Y-108261252D01*
%TO.C,C2*%
X39488748Y-85015000D02*
X40011252Y-85015000D01*
X39488748Y-86485000D02*
X40011252Y-86485000D01*
%TO.C,BT1*%
X38195000Y-68520000D02*
X38195000Y-71120000D01*
X38195000Y-68520000D02*
X40855000Y-68520000D01*
X38195000Y-71120000D02*
X40855000Y-71120000D01*
X39525000Y-65920000D02*
X40855000Y-65920000D01*
X40855000Y-65920000D02*
X40855000Y-67250000D01*
X40855000Y-68520000D02*
X40855000Y-71120000D01*
%TO.C,C6*%
X47249759Y-62161000D02*
X47879759Y-62161000D01*
X47564759Y-61846000D02*
X47564759Y-62476000D01*
X50750000Y-60770000D02*
X50750000Y-67230000D01*
X50790000Y-60770000D02*
X50790000Y-67230000D01*
X50830000Y-60771000D02*
X50830000Y-67229000D01*
X50870000Y-60772000D02*
X50870000Y-67228000D01*
X50910000Y-60774000D02*
X50910000Y-67226000D01*
X50950000Y-60776000D02*
X50950000Y-67224000D01*
X50990000Y-60779000D02*
X50990000Y-62960000D01*
X50990000Y-65040000D02*
X50990000Y-67221000D01*
X51030000Y-60782000D02*
X51030000Y-62960000D01*
X51030000Y-65040000D02*
X51030000Y-67218000D01*
X51070000Y-60786000D02*
X51070000Y-62960000D01*
X51070000Y-65040000D02*
X51070000Y-67214000D01*
X51110000Y-60790000D02*
X51110000Y-62960000D01*
X51110000Y-65040000D02*
X51110000Y-67210000D01*
X51150000Y-60795000D02*
X51150000Y-62960000D01*
X51150000Y-65040000D02*
X51150000Y-67205000D01*
X51190000Y-60800000D02*
X51190000Y-62960000D01*
X51190000Y-65040000D02*
X51190000Y-67200000D01*
X51230000Y-60805000D02*
X51230000Y-62960000D01*
X51230000Y-65040000D02*
X51230000Y-67195000D01*
X51270000Y-60812000D02*
X51270000Y-62960000D01*
X51270000Y-65040000D02*
X51270000Y-67188000D01*
X51310000Y-60818000D02*
X51310000Y-62960000D01*
X51310000Y-65040000D02*
X51310000Y-67182000D01*
X51350000Y-60826000D02*
X51350000Y-62960000D01*
X51350000Y-65040000D02*
X51350000Y-67174000D01*
X51390000Y-60833000D02*
X51390000Y-62960000D01*
X51390000Y-65040000D02*
X51390000Y-67167000D01*
X51430000Y-60841000D02*
X51430000Y-62960000D01*
X51430000Y-65040000D02*
X51430000Y-67159000D01*
X51470000Y-60850000D02*
X51470000Y-62960000D01*
X51470000Y-65040000D02*
X51470000Y-67150000D01*
X51510000Y-60860000D02*
X51510000Y-62960000D01*
X51510000Y-65040000D02*
X51510000Y-67140000D01*
X51550000Y-60869000D02*
X51550000Y-62960000D01*
X51550000Y-65040000D02*
X51550000Y-67131000D01*
X51590000Y-60880000D02*
X51590000Y-62960000D01*
X51590000Y-65040000D02*
X51590000Y-67120000D01*
X51630000Y-60891000D02*
X51630000Y-62960000D01*
X51630000Y-65040000D02*
X51630000Y-67109000D01*
X51670000Y-60902000D02*
X51670000Y-62960000D01*
X51670000Y-65040000D02*
X51670000Y-67098000D01*
X51710000Y-60914000D02*
X51710000Y-62960000D01*
X51710000Y-65040000D02*
X51710000Y-67086000D01*
X51750000Y-60927000D02*
X51750000Y-62960000D01*
X51750000Y-65040000D02*
X51750000Y-67073000D01*
X51790000Y-60940000D02*
X51790000Y-62960000D01*
X51790000Y-65040000D02*
X51790000Y-67060000D01*
X51830000Y-60953000D02*
X51830000Y-62960000D01*
X51830000Y-65040000D02*
X51830000Y-67047000D01*
X51870000Y-60968000D02*
X51870000Y-62960000D01*
X51870000Y-65040000D02*
X51870000Y-67032000D01*
X51910000Y-60983000D02*
X51910000Y-62960000D01*
X51910000Y-65040000D02*
X51910000Y-67017000D01*
X51950000Y-60998000D02*
X51950000Y-62960000D01*
X51950000Y-65040000D02*
X51950000Y-67002000D01*
X51990000Y-61014000D02*
X51990000Y-62960000D01*
X51990000Y-65040000D02*
X51990000Y-66986000D01*
X52030000Y-61031000D02*
X52030000Y-62960000D01*
X52030000Y-65040000D02*
X52030000Y-66969000D01*
X52070000Y-61048000D02*
X52070000Y-62960000D01*
X52070000Y-65040000D02*
X52070000Y-66952000D01*
X52110000Y-61066000D02*
X52110000Y-62960000D01*
X52110000Y-65040000D02*
X52110000Y-66934000D01*
X52150000Y-61085000D02*
X52150000Y-62960000D01*
X52150000Y-65040000D02*
X52150000Y-66915000D01*
X52190000Y-61104000D02*
X52190000Y-62960000D01*
X52190000Y-65040000D02*
X52190000Y-66896000D01*
X52230000Y-61124000D02*
X52230000Y-62960000D01*
X52230000Y-65040000D02*
X52230000Y-66876000D01*
X52270000Y-61145000D02*
X52270000Y-62960000D01*
X52270000Y-65040000D02*
X52270000Y-66855000D01*
X52310000Y-61166000D02*
X52310000Y-62960000D01*
X52310000Y-65040000D02*
X52310000Y-66834000D01*
X52350000Y-61188000D02*
X52350000Y-62960000D01*
X52350000Y-65040000D02*
X52350000Y-66812000D01*
X52390000Y-61211000D02*
X52390000Y-62960000D01*
X52390000Y-65040000D02*
X52390000Y-66789000D01*
X52430000Y-61235000D02*
X52430000Y-62960000D01*
X52430000Y-65040000D02*
X52430000Y-66765000D01*
X52470000Y-61259000D02*
X52470000Y-62960000D01*
X52470000Y-65040000D02*
X52470000Y-66741000D01*
X52510000Y-61284000D02*
X52510000Y-62960000D01*
X52510000Y-65040000D02*
X52510000Y-66716000D01*
X52550000Y-61310000D02*
X52550000Y-62960000D01*
X52550000Y-65040000D02*
X52550000Y-66690000D01*
X52590000Y-61337000D02*
X52590000Y-62960000D01*
X52590000Y-65040000D02*
X52590000Y-66663000D01*
X52630000Y-61364000D02*
X52630000Y-62960000D01*
X52630000Y-65040000D02*
X52630000Y-66636000D01*
X52670000Y-61393000D02*
X52670000Y-62960000D01*
X52670000Y-65040000D02*
X52670000Y-66607000D01*
X52710000Y-61423000D02*
X52710000Y-62960000D01*
X52710000Y-65040000D02*
X52710000Y-66577000D01*
X52750000Y-61453000D02*
X52750000Y-62960000D01*
X52750000Y-65040000D02*
X52750000Y-66547000D01*
X52790000Y-61484000D02*
X52790000Y-62960000D01*
X52790000Y-65040000D02*
X52790000Y-66516000D01*
X52830000Y-61517000D02*
X52830000Y-62960000D01*
X52830000Y-65040000D02*
X52830000Y-66483000D01*
X52870000Y-61550000D02*
X52870000Y-62960000D01*
X52870000Y-65040000D02*
X52870000Y-66450000D01*
X52910000Y-61585000D02*
X52910000Y-62960000D01*
X52910000Y-65040000D02*
X52910000Y-66415000D01*
X52950000Y-61621000D02*
X52950000Y-62960000D01*
X52950000Y-65040000D02*
X52950000Y-66379000D01*
X52990000Y-61658000D02*
X52990000Y-62960000D01*
X52990000Y-65040000D02*
X52990000Y-66342000D01*
X53030000Y-61696000D02*
X53030000Y-62960000D01*
X53030000Y-65040000D02*
X53030000Y-66304000D01*
X53070000Y-61736000D02*
X53070000Y-66264000D01*
X53110000Y-61777000D02*
X53110000Y-66223000D01*
X53150000Y-61819000D02*
X53150000Y-66181000D01*
X53190000Y-61863000D02*
X53190000Y-66137000D01*
X53230000Y-61909000D02*
X53230000Y-66091000D01*
X53270000Y-61956000D02*
X53270000Y-66044000D01*
X53310000Y-62005000D02*
X53310000Y-65995000D01*
X53350000Y-62057000D02*
X53350000Y-65943000D01*
X53390000Y-62110000D02*
X53390000Y-65890000D01*
X53430000Y-62166000D02*
X53430000Y-65834000D01*
X53470000Y-62225000D02*
X53470000Y-65775000D01*
X53510000Y-62286000D02*
X53510000Y-65714000D01*
X53550000Y-62351000D02*
X53550000Y-65649000D01*
X53590000Y-62419000D02*
X53590000Y-65581000D01*
X53630000Y-62491000D02*
X53630000Y-65509000D01*
X53670000Y-62568000D02*
X53670000Y-65432000D01*
X53710000Y-62650000D02*
X53710000Y-65350000D01*
X53750000Y-62739000D02*
X53750000Y-65261000D01*
X53790000Y-62835000D02*
X53790000Y-65165000D01*
X53830000Y-62942000D02*
X53830000Y-65058000D01*
X53870000Y-63061000D02*
X53870000Y-64939000D01*
X53910000Y-63199000D02*
X53910000Y-64801000D01*
X53950000Y-63367000D02*
X53950000Y-64633000D01*
X53990000Y-63598000D02*
X53990000Y-64402000D01*
X54020000Y-64000000D02*
G75*
G02*
X47480000Y-64000000I-3270000J0D01*
G01*
X47480000Y-64000000D02*
G75*
G02*
X54020000Y-64000000I3270000J0D01*
G01*
%TO.C,L1*%
X70970000Y-65500000D02*
G75*
G02*
X62030000Y-65500000I-4470000J0D01*
G01*
X62030000Y-65500000D02*
G75*
G02*
X70970000Y-65500000I4470000J0D01*
G01*
%TO.C,J3*%
X127805000Y-116130000D02*
X127805000Y-93210000D01*
X127805000Y-116130000D02*
X125145000Y-116130000D01*
X127805000Y-93210000D02*
X125145000Y-93210000D01*
X126475000Y-118730000D02*
X125145000Y-118730000D01*
X125145000Y-118730000D02*
X125145000Y-117400000D01*
X125145000Y-116130000D02*
X125145000Y-93210000D01*
%TO.C,U3*%
X40440000Y-86750000D02*
G75*
G02*
X40240000Y-86750000I-100000J0D01*
G01*
X40240000Y-86750000D02*
G75*
G02*
X40440000Y-86750000I100000J0D01*
G01*
X39750000Y-105500000D02*
X61250000Y-105500000D01*
X38750000Y-88500000D02*
X38750000Y-104500000D01*
X61250000Y-87500000D02*
X39750000Y-87500000D01*
X62250000Y-104500000D02*
X62250000Y-88500000D01*
X62250000Y-104500000D02*
G75*
G02*
X61250000Y-105500000I-1000000J0D01*
G01*
X39750000Y-105500000D02*
G75*
G02*
X38750000Y-104500000I0J1000000D01*
G01*
X38750000Y-88500000D02*
G75*
G02*
X39750000Y-87500000I1000000J0D01*
G01*
X61250000Y-87500000D02*
G75*
G02*
X62250000Y-88500000I0J-1000000D01*
G01*
%TO.C,J1*%
X69170000Y-91730000D02*
X69170000Y-101950000D01*
X69170000Y-91730000D02*
X71830000Y-91730000D01*
X69170000Y-101950000D02*
X71830000Y-101950000D01*
X70500000Y-89130000D02*
X71830000Y-89130000D01*
X71830000Y-89130000D02*
X71830000Y-90460000D01*
X71830000Y-91730000D02*
X71830000Y-101950000D01*
%TD*%
M02*
