%TF.GenerationSoftware,KiCad,Pcbnew,9.0.4*%
%TF.CreationDate,2025-09-10T13:44:02+03:00*%
%TF.ProjectId,leakage_tester,6c65616b-6167-4655-9f74-65737465722e,rev?*%
%TF.SameCoordinates,Original*%
%TF.FileFunction,Drillmap*%
%TF.FilePolarity,Positive*%
%FSLAX45Y45*%
G04 Gerber Fmt 4.5, Leading zero omitted, Abs format (unit mm)*
G04 Created by KiCad (PCBNEW 9.0.4) date 2025-09-10 13:44:02*
%MOMM*%
%LPD*%
G01*
G04 APERTURE LIST*
%ADD10C,0.050000*%
%ADD11C,0.200000*%
G04 APERTURE END LIST*
D10*
X3700000Y-5800000D02*
X13700000Y-5800000D01*
X13700000Y-12550000D01*
X3700000Y-12550000D01*
X3700000Y-5800000D01*
D11*
X3958277Y-12863984D02*
X3958277Y-12663984D01*
X3958277Y-12663984D02*
X4005896Y-12663984D01*
X4005896Y-12663984D02*
X4034467Y-12673508D01*
X4034467Y-12673508D02*
X4053515Y-12692555D01*
X4053515Y-12692555D02*
X4063039Y-12711603D01*
X4063039Y-12711603D02*
X4072562Y-12749698D01*
X4072562Y-12749698D02*
X4072562Y-12778269D01*
X4072562Y-12778269D02*
X4063039Y-12816365D01*
X4063039Y-12816365D02*
X4053515Y-12835412D01*
X4053515Y-12835412D02*
X4034467Y-12854460D01*
X4034467Y-12854460D02*
X4005896Y-12863984D01*
X4005896Y-12863984D02*
X3958277Y-12863984D01*
X4158277Y-12863984D02*
X4158277Y-12730650D01*
X4158277Y-12768746D02*
X4167801Y-12749698D01*
X4167801Y-12749698D02*
X4177324Y-12740174D01*
X4177324Y-12740174D02*
X4196372Y-12730650D01*
X4196372Y-12730650D02*
X4215420Y-12730650D01*
X4282086Y-12863984D02*
X4282086Y-12730650D01*
X4282086Y-12663984D02*
X4272563Y-12673508D01*
X4272563Y-12673508D02*
X4282086Y-12683031D01*
X4282086Y-12683031D02*
X4291610Y-12673508D01*
X4291610Y-12673508D02*
X4282086Y-12663984D01*
X4282086Y-12663984D02*
X4282086Y-12683031D01*
X4405896Y-12863984D02*
X4386848Y-12854460D01*
X4386848Y-12854460D02*
X4377324Y-12835412D01*
X4377324Y-12835412D02*
X4377324Y-12663984D01*
X4510658Y-12863984D02*
X4491610Y-12854460D01*
X4491610Y-12854460D02*
X4482086Y-12835412D01*
X4482086Y-12835412D02*
X4482086Y-12663984D01*
X4739229Y-12863984D02*
X4739229Y-12663984D01*
X4739229Y-12663984D02*
X4805896Y-12806841D01*
X4805896Y-12806841D02*
X4872563Y-12663984D01*
X4872563Y-12663984D02*
X4872563Y-12863984D01*
X5053515Y-12863984D02*
X5053515Y-12759222D01*
X5053515Y-12759222D02*
X5043991Y-12740174D01*
X5043991Y-12740174D02*
X5024944Y-12730650D01*
X5024944Y-12730650D02*
X4986848Y-12730650D01*
X4986848Y-12730650D02*
X4967801Y-12740174D01*
X5053515Y-12854460D02*
X5034467Y-12863984D01*
X5034467Y-12863984D02*
X4986848Y-12863984D01*
X4986848Y-12863984D02*
X4967801Y-12854460D01*
X4967801Y-12854460D02*
X4958277Y-12835412D01*
X4958277Y-12835412D02*
X4958277Y-12816365D01*
X4958277Y-12816365D02*
X4967801Y-12797317D01*
X4967801Y-12797317D02*
X4986848Y-12787793D01*
X4986848Y-12787793D02*
X5034467Y-12787793D01*
X5034467Y-12787793D02*
X5053515Y-12778269D01*
X5148753Y-12730650D02*
X5148753Y-12930650D01*
X5148753Y-12740174D02*
X5167801Y-12730650D01*
X5167801Y-12730650D02*
X5205896Y-12730650D01*
X5205896Y-12730650D02*
X5224944Y-12740174D01*
X5224944Y-12740174D02*
X5234467Y-12749698D01*
X5234467Y-12749698D02*
X5243991Y-12768746D01*
X5243991Y-12768746D02*
X5243991Y-12825888D01*
X5243991Y-12825888D02*
X5234467Y-12844936D01*
X5234467Y-12844936D02*
X5224944Y-12854460D01*
X5224944Y-12854460D02*
X5205896Y-12863984D01*
X5205896Y-12863984D02*
X5167801Y-12863984D01*
X5167801Y-12863984D02*
X5148753Y-12854460D01*
X5329705Y-12844936D02*
X5339229Y-12854460D01*
X5339229Y-12854460D02*
X5329705Y-12863984D01*
X5329705Y-12863984D02*
X5320182Y-12854460D01*
X5320182Y-12854460D02*
X5329705Y-12844936D01*
X5329705Y-12844936D02*
X5329705Y-12863984D01*
X5329705Y-12740174D02*
X5339229Y-12749698D01*
X5339229Y-12749698D02*
X5329705Y-12759222D01*
X5329705Y-12759222D02*
X5320182Y-12749698D01*
X5320182Y-12749698D02*
X5329705Y-12740174D01*
X5329705Y-12740174D02*
X5329705Y-12759222D01*
M02*
