%TF.GenerationSoftware,KiCad,Pcbnew,9.0.4*%
%TF.CreationDate,2025-09-10T13:42:27+03:00*%
%TF.ProjectId,leakage_tester,6c65616b-6167-4655-9f74-65737465722e,rev?*%
%TF.SameCoordinates,Original*%
%TF.FileFunction,Soldermask,Bot*%
%TF.FilePolarity,Negative*%
%FSLAX46Y46*%
G04 Gerber Fmt 4.6, Leading zero omitted, Abs format (unit mm)*
G04 Created by KiCad (PCBNEW 9.0.4) date 2025-09-10 13:42:27*
%MOMM*%
%LPD*%
G01*
G04 APERTURE LIST*
G04 Aperture macros list*
%AMRoundRect*
0 Rectangle with rounded corners*
0 $1 Rounding radius*
0 $2 $3 $4 $5 $6 $7 $8 $9 X,Y pos of 4 corners*
0 Add a 4 corners polygon primitive as box body*
4,1,4,$2,$3,$4,$5,$6,$7,$8,$9,$2,$3,0*
0 Add four circle primitives for the rounded corners*
1,1,$1+$1,$2,$3*
1,1,$1+$1,$4,$5*
1,1,$1+$1,$6,$7*
1,1,$1+$1,$8,$9*
0 Add four rect primitives between the rounded corners*
20,1,$1+$1,$2,$3,$4,$5,0*
20,1,$1+$1,$4,$5,$6,$7,0*
20,1,$1+$1,$6,$7,$8,$9,0*
20,1,$1+$1,$8,$9,$2,$3,0*%
G04 Aperture macros list end*
%ADD10C,1.600000*%
%ADD11RoundRect,0.650000X-0.650000X0.650000X-0.650000X-0.650000X0.650000X-0.650000X0.650000X0.650000X0*%
%ADD12C,2.600000*%
%ADD13C,2.200000*%
%ADD14R,1.800000X1.800000*%
%ADD15C,1.800000*%
%ADD16RoundRect,0.250000X-0.550000X0.550000X-0.550000X-0.550000X0.550000X-0.550000X0.550000X0.550000X0*%
%ADD17RoundRect,0.250000X-0.550000X-0.550000X0.550000X-0.550000X0.550000X0.550000X-0.550000X0.550000X0*%
%ADD18C,1.700000*%
%ADD19R,1.700000X1.700000*%
%ADD20O,1.050000X1.500000*%
%ADD21R,1.050000X1.500000*%
%ADD22C,4.400000*%
%ADD23C,1.712000*%
%ADD24RoundRect,0.102000X0.754000X-0.754000X0.754000X0.754000X-0.754000X0.754000X-0.754000X-0.754000X0*%
G04 APERTURE END LIST*
D10*
%TO.C,C9*%
X76900000Y-66500000D03*
X81900000Y-66500000D03*
%TD*%
D11*
%TO.C,TP1*%
X80500000Y-70960000D03*
D12*
X80500000Y-76040000D03*
%TD*%
D13*
%TO.C,K1*%
X102000000Y-62000000D03*
X100500000Y-69620000D03*
X104540000Y-69620000D03*
D14*
X89300000Y-69620000D03*
D15*
X89300000Y-62000000D03*
%TD*%
D14*
%TO.C,D5*%
X103770000Y-74000000D03*
D15*
X101230000Y-74000000D03*
%TD*%
D10*
%TO.C,D4*%
X86000000Y-69810000D03*
D16*
X86000000Y-62190000D03*
%TD*%
D17*
%TO.C,C8*%
X72294888Y-62500000D03*
D10*
X74794888Y-62500000D03*
%TD*%
D18*
%TO.C,J2*%
X134475000Y-100940000D03*
X134475000Y-98400000D03*
X134475000Y-95860000D03*
D19*
X134475000Y-93320000D03*
%TD*%
D16*
%TO.C,D6*%
X111000000Y-62000000D03*
D10*
X111000000Y-69620000D03*
%TD*%
D20*
%TO.C,Q6*%
X114000000Y-74500000D03*
X112730000Y-74500000D03*
D21*
X111460000Y-74500000D03*
%TD*%
%TO.C,Q5*%
X86230000Y-74500000D03*
D20*
X87500000Y-74500000D03*
X88770000Y-74500000D03*
%TD*%
D13*
%TO.C,K2*%
X126902500Y-62137500D03*
X125402500Y-69757500D03*
X129442500Y-69757500D03*
D14*
X114202500Y-69757500D03*
D15*
X114202500Y-62137500D03*
%TD*%
D22*
%TO.C,H4*%
X134000000Y-122500000D03*
%TD*%
%TO.C,H3*%
X40000000Y-122500000D03*
%TD*%
%TO.C,H2*%
X134000000Y-61000000D03*
%TD*%
%TO.C,H1*%
X40000000Y-61000000D03*
%TD*%
D19*
%TO.C,BT1*%
X39525000Y-67250000D03*
D18*
X39525000Y-69790000D03*
%TD*%
D17*
%TO.C,C6*%
X49500000Y-64000000D03*
D10*
X52000000Y-64000000D03*
%TD*%
D12*
%TO.C,L1*%
X66500000Y-68000000D03*
X66500000Y-63000000D03*
%TD*%
D19*
%TO.C,J3*%
X126475000Y-117400000D03*
D18*
X126475000Y-114860000D03*
X126475000Y-112320000D03*
X126475000Y-109780000D03*
X126475000Y-107240000D03*
X126475000Y-104700000D03*
X126475000Y-102160000D03*
X126475000Y-99620000D03*
X126475000Y-97080000D03*
X126475000Y-94540000D03*
%TD*%
D23*
%TO.C,U3*%
X40340000Y-104120000D03*
X42880000Y-104120000D03*
X45420000Y-104120000D03*
X47960000Y-104120000D03*
X50500000Y-104120000D03*
X53040000Y-104120000D03*
X55580000Y-104120000D03*
X58120000Y-104120000D03*
X60660000Y-104120000D03*
X60660000Y-101580000D03*
X60660000Y-99040000D03*
X60660000Y-96500000D03*
X60660000Y-93960000D03*
X60660000Y-91420000D03*
X60660000Y-88880000D03*
X58120000Y-88880000D03*
X55580000Y-88880000D03*
X53040000Y-88880000D03*
X50500000Y-88880000D03*
X47960000Y-88880000D03*
X45420000Y-88880000D03*
X42880000Y-88880000D03*
D24*
X40340000Y-88880000D03*
%TD*%
D19*
%TO.C,J1*%
X70500000Y-90460000D03*
D18*
X70500000Y-93000000D03*
X70500000Y-95540000D03*
X70500000Y-98080000D03*
X70500000Y-100620000D03*
%TD*%
M02*
